<?xml version="1.0" standalone="no"?>
<!DOCTYPE svg PUBLIC "-//W3C//DTD SVG 20010904//EN"
 "http://www.w3.org/TR/2001/REC-SVG-20010904/DTD/svg10.dtd">
<svg version="1.0" xmlns="http://www.w3.org/2000/svg"
 width="700.000000pt" height="700.000000pt" viewBox="0 0 700.000000 700.000000"
 preserveAspectRatio="xMidYMid meet">
<metadata>
Created by potrace 1.14, written by Peter Selinger 2001-2017
</metadata>
<g transform="translate(0.000000,700.000000) scale(0.100000,-0.100000)"
fill="#000000" stroke="none">
<path d="M3269 6971 c-96 -33 -160 -66 -234 -122 -73 -55 -2969 -2948 -2987
-2984 -114 -228 98 -473 336 -388 34 13 72 41 135 102 47 46 107 103 132 127
l46 44 0 -1353 c0 -743 3 -1379 7 -1412 21 -173 76 -326 171 -471 167 -257
425 -426 750 -490 22 -4 859 -8 1860 -9 1797 -1 1871 0 2006 29 325 70 631
334 757 654 57 142 77 243 76 387 0 83 -3 107 -21 141 -86 163 -291 203 -426
84 -60 -53 -87 -113 -93 -208 -15 -216 -118 -384 -294 -476 -132 -70 -5 -66
-1975 -66 -1961 0 -1838 -3 -1973 63 -137 67 -257 224 -288 379 -4 18 -8 768
-8 1666 l-1 1632 1065 1064 c986 984 1069 1065 1118 1083 70 25 153 23 213 -7
31 -15 200 -178 572 -553 291 -293 763 -768 1050 -1057 l522 -525 0 -950 0
-950 27 -51 c51 -98 130 -146 243 -148 111 -2 197 51 247 152 l23 47 3 674 2
674 133 -129 c106 -103 142 -132 182 -147 128 -45 273 10 335 126 28 53 28
202 0 256 -10 21 -158 178 -327 349 -528 532 -2386 2401 -2500 2515 -106 107
-200 178 -278 212 -22 9 -49 21 -60 26 -66 30 -124 37 -288 38 -165 1 -175 0
-258 -28z"/>
<path d="M2510 3703 c-65 -22 -125 -75 -155 -137 -22 -45 -27 -70 -30 -162 -5
-130 -18 -259 -30 -304 -2 -8 -7 -30 -10 -49 -20 -115 -87 -299 -192 -524
-103 -221 -159 -366 -187 -489 -33 -136 -35 -153 -42 -289 -6 -94 -4 -125 10
-167 46 -136 199 -216 335 -175 120 36 187 128 196 269 14 229 34 294 215 689
75 163 171 424 185 500 12 68 16 89 20 95 2 4 7 29 10 56 4 27 8 56 10 64 11
43 19 171 20 300 0 162 -10 195 -77 260 -69 67 -189 94 -278 63z"/>
<path d="M3657 3703 c-61 -21 -129 -80 -155 -137 -22 -47 -29 -93 -37 -269 -2
-60 -6 -111 -9 -115 -2 -4 -6 -30 -10 -58 -15 -130 -89 -351 -188 -563 -89
-189 -107 -230 -142 -321 -40 -104 -80 -255 -93 -346 -4 -33 -8 -115 -8 -184
0 -110 3 -130 22 -166 88 -165 313 -197 440 -63 53 56 73 115 79 231 8 169 47
295 181 583 38 83 82 182 97 220 16 39 32 79 37 90 47 108 110 359 124 490 4
33 8 71 11 85 2 14 6 84 10 156 5 105 3 142 -10 186 -19 66 -79 138 -139 167
-59 28 -150 35 -210 14z"/>
<path d="M4806 3704 c-34 -11 -65 -31 -102 -68 -66 -67 -80 -113 -88 -291 -13
-282 -55 -441 -211 -785 -162 -358 -206 -481 -230 -650 -3 -25 -8 -58 -11 -73
-2 -15 -5 -69 -6 -120 -2 -125 18 -183 90 -248 106 -97 255 -98 361 -3 66 60
88 115 95 241 7 115 24 200 66 317 27 78 46 123 123 286 108 232 167 391 210
570 56 232 80 549 49 649 -20 64 -77 132 -135 160 -57 28 -149 34 -211 15z"/>
</g>
</svg>
