<svg width="25" height="25" viewBox="0 0 25 25" fill="none" xmlns="http://www.w3.org/2000/svg">
<g clip-path="url(#clip0)">
<path d="M24.108 6.35934e-08C23.9694 -5.22515e-05 23.8326 0.0321738 23.7085 0.0941671L16.9426 3.47806L9.2918 0.0772171C9.27929 0.0718809 9.26501 0.0709393 9.25162 0.0656031C9.2172 0.0527336 9.18199 0.042009 9.14626 0.0334817C9.11073 0.023908 9.07464 0.016427 9.03823 0.0111432C8.96572 0.00517925 8.89284 0.00517925 8.82039 0.0111432C8.78398 0.016427 8.74788 0.023908 8.71236 0.0334817C8.67662 0.042009 8.64142 0.0527336 8.60699 0.0656031C8.5936 0.0709393 8.57932 0.0718286 8.56682 0.0772171L0.531224 3.64861C0.20865 3.79185 0.000802187 4.1117 0.000854502 4.46462V24.1072C0.00101145 24.4093 0.153824 24.6908 0.407081 24.8554C0.66039 25.0203 0.979878 25.0458 1.25615 24.9233L8.92925 21.5126L16.6024 24.9233C16.6157 24.9286 16.63 24.9233 16.6434 24.9313C16.8596 25.028 17.1077 25.0224 17.3193 24.9161C17.3336 24.9099 17.3496 24.9161 17.3639 24.9063L24.5066 21.3349C24.8093 21.1837 25.0005 20.8742 25.0004 20.5358V0.89328C25.0007 0.400158 24.6011 0.000209324 24.108 6.35934e-08ZM8.03645 19.9555L1.78652 22.7331V5.045L8.03645 2.26733V19.9555ZM16.072 22.7331L9.82211 19.9555V2.26733L16.072 5.04495V22.7331ZM23.2148 19.984L17.8577 22.6626V5.01639L23.2148 2.33785V19.984V19.984Z" fill="white" fill-opacity="0.5"/>
</g>
<defs>
<clipPath id="clip0">
<rect width="25" height="25" fill="white"/>
</clipPath>
</defs>
</svg>
