<svg xmlns="http://www.w3.org/2000/svg" width="159" height="552" viewBox="0 0 159 552" fill="none">
<rect x="77.5233" y="462.64" width="80.8372" height="37.5116" stroke="black"/>
<rect x="77.5233" y="406.477" width="80.8372" height="56.7674" stroke="black"/>
<rect x="77.5233" y="369.57" width="80.8372" height="37.5116" stroke="black"/>
<rect x="77.5233" y="258.849" width="80.8372" height="111.326" stroke="black"/>
<rect x="116.035" y="201.081" width="42.3256" height="58.3721" stroke="black"/>
<rect x="77.5233" y="128.872" width="80.8372" height="130.581" stroke="black"/>
<rect x="77.5233" y="74.314" width="80.8372" height="55.1628" stroke="black"/>
<rect x="77.5233" y="0.5" width="80.8372" height="37.5116" stroke="black"/>
<rect x="77.5233" y="37.407" width="80.8372" height="37.5116" stroke="black"/>
<rect x="0.5" y="0.5" width="51.9535" height="37.5116" id="C8-05"/>
<rect x="0.5" y="37.407" width="51.9535" height="37.5116" stroke="black"/>
<rect x="0.5" y="74.314" width="51.9535" height="37.5116" stroke="black"/>
<rect x="0.5" y="111.221" width="51.9535" height="37.5116" stroke="black"/>
<rect x="0.5" y="148.128" width="51.9535" height="37.5116" stroke="black"/>
<rect x="0.5" y="185.035" width="51.9535" height="37.5116" stroke="black"/>
<rect x="0.5" y="276.5" width="51.9535" height="37.5116" stroke="black"/>
<rect x="0.5" y="403.267" width="51.9535" height="37.5116" stroke="black"/>
<rect x="0.5" y="440.174" width="51.9535" height="37.5116" stroke="black"/>
<rect x="0.5" y="477.081" width="51.9535" height="37.5116" stroke="black"/>
<rect x="0.5" y="513.988" width="51.9535" height="37.5116" stroke="black"/>
<rect x="0.5" y="221.942" width="51.9535" height="55.1628" stroke="black"/>
<rect x="0.5" y="313.407" width="51.9535" height="55.1628" stroke="black"/>
<rect x="0.5" y="367.965" width="51.9535" height="18.2558" stroke="black"/>
<rect x="0.5" y="385.616" width="51.9535" height="18.2558" stroke="black"/>
<rect x="77.5233" y="499.547" width="80.8372" height="51.9535" stroke="black"/>
<path d="M26.7325 27.4611C27.1085 27.505 27.399 27.6442 27.6041 27.8785C27.8076 28.1113 27.9093 28.4213 27.9093 28.8087C27.9093 29.2286 27.7587 29.5656 27.4576 29.8195C27.1565 30.0717 26.7537 30.1979 26.2491 30.1979H25.9073C25.5769 30.1979 25.2864 30.1393 25.0358 30.0221C24.7851 29.9033 24.5931 29.7356 24.4596 29.5192C24.3245 29.3027 24.257 29.052 24.257 28.7672C24.257 28.3896 24.3628 28.0869 24.5743 27.859C24.7843 27.6311 25.0756 27.4985 25.4484 27.4611V27.9323C25.1652 27.9729 24.9601 28.0616 24.8331 28.1984C24.7062 28.3335 24.6427 28.5231 24.6427 28.7672C24.6427 29.0667 24.7534 29.3019 24.9747 29.4728C25.1961 29.642 25.511 29.7267 25.9196 29.7267H26.2638C26.6495 29.7267 26.9563 29.6461 27.1842 29.485C27.4121 29.3239 27.526 29.0984 27.526 28.8087C27.526 28.5483 27.4674 28.3489 27.3502 28.2106C27.2314 28.0706 27.0255 27.9778 26.7325 27.9323V27.4611ZM25.2335 24.7804C25.4109 24.7804 25.5688 24.8276 25.7072 24.922C25.8455 25.0148 25.9537 25.1409 26.0319 25.3004C26.1116 25.1149 26.228 24.9684 26.381 24.861C26.534 24.7519 26.7073 24.6974 26.901 24.6974C27.2086 24.6974 27.4536 24.8016 27.6359 25.0099C27.8182 25.2166 27.9093 25.4892 27.9093 25.8278C27.9093 26.1696 27.8182 26.4438 27.6359 26.6505C27.4519 26.8556 27.207 26.9581 26.901 26.9581C26.7089 26.9581 26.5356 26.906 26.381 26.8019C26.2264 26.6961 26.1092 26.5504 26.0294 26.3649C25.9513 26.5227 25.8431 26.6473 25.7047 26.7384C25.5664 26.8295 25.4093 26.8751 25.2335 26.8751C24.934 26.8751 24.6964 26.7791 24.5206 26.587C24.3448 26.395 24.257 26.1419 24.257 25.8278C24.257 25.5153 24.3448 25.263 24.5206 25.0709C24.6964 24.8772 24.934 24.7804 25.2335 24.7804ZM26.8912 25.149C26.6927 25.149 26.5307 25.2125 26.4054 25.3395C26.2801 25.4648 26.2174 25.6292 26.2174 25.8326C26.2174 26.0361 26.2793 26.1997 26.403 26.3234C26.5267 26.4454 26.6894 26.5065 26.8912 26.5065C27.0931 26.5065 27.2517 26.4471 27.3673 26.3282C27.4829 26.2078 27.5406 26.041 27.5406 25.8278C27.5406 25.6162 27.4829 25.4502 27.3673 25.3297C27.2501 25.2093 27.0914 25.149 26.8912 25.149ZM24.6281 25.8278C24.6281 26.0052 24.6834 26.1492 24.7941 26.2599C24.9031 26.3689 25.052 26.4235 25.2408 26.4235C25.4215 26.4235 25.568 26.3698 25.6803 26.2623C25.791 26.1533 25.8463 26.0084 25.8463 25.8278C25.8463 25.6471 25.791 25.5031 25.6803 25.3956C25.568 25.2866 25.4215 25.2321 25.2408 25.2321C25.0602 25.2321 24.9129 25.2882 24.799 25.4005C24.685 25.5128 24.6281 25.6552 24.6281 25.8278ZM26.5348 23.1422V24.3336H26.1661V23.1422H26.5348ZM26.3444 20.5177C26.8733 20.5177 27.2664 20.608 27.5236 20.7887C27.7807 20.9694 27.9093 21.2517 27.9093 21.6359C27.9093 22.0151 27.784 22.2959 27.5333 22.4781C27.281 22.6604 26.9051 22.7548 26.4054 22.7614H25.8024C25.2799 22.7614 24.8917 22.671 24.6378 22.4904C24.3839 22.3097 24.257 22.0265 24.257 21.6407C24.257 21.2583 24.3798 20.9767 24.6256 20.796C24.8698 20.6154 25.2474 20.5226 25.7584 20.5177H26.3444ZM25.7267 20.9694C25.3442 20.9694 25.0659 21.0231 24.8917 21.1305C24.7159 21.2379 24.6281 21.408 24.6281 21.6407C24.6281 21.8719 24.7151 22.0403 24.8893 22.1461C25.0634 22.2519 25.3312 22.3064 25.6925 22.3097H26.4152C26.7993 22.3097 27.0833 22.2544 27.2672 22.1437C27.4495 22.0314 27.5406 21.8621 27.5406 21.6359C27.5406 21.4129 27.4544 21.2477 27.2819 21.1403C27.1093 21.0312 26.8375 20.9742 26.4664 20.9694H25.7267ZM26.0782 19.7316L24.3058 19.5509V17.7296H24.7233V19.1676L25.6925 19.275C25.59 19.1009 25.5387 18.9031 25.5387 18.6818C25.5387 18.3579 25.6461 18.1007 25.861 17.9103C26.0742 17.7198 26.3631 17.6246 26.7277 17.6246C27.0939 17.6246 27.3828 17.7239 27.5944 17.9225C27.8043 18.1194 27.9093 18.3953 27.9093 18.7501C27.9093 19.0642 27.8222 19.3206 27.6481 19.5192C27.4739 19.7177 27.233 19.8309 26.9254 19.8585V19.4313C27.1289 19.4036 27.2827 19.3312 27.3868 19.214C27.4894 19.0968 27.5406 18.9422 27.5406 18.7501C27.5406 18.5402 27.469 18.3758 27.3258 18.257C27.1826 18.1365 26.9848 18.0763 26.7325 18.0763C26.4949 18.0763 26.3045 18.1414 26.1613 18.2716C26.0164 18.4002 25.944 18.5719 25.944 18.7867C25.944 18.9837 25.9871 19.1383 26.0734 19.2506L26.171 19.3702L26.0782 19.7316Z" fill="black"/>
</svg>