<svg width="260" height="900" viewBox="0 0 221 765" fill="none" xmlns="http://www.w3.org/2000/svg">
<path id="C8-19" d="M219.79 641.159H107.761V693.145H219.79V641.159Z" fill="white" stroke="black" stroke-width="1.38587"/>
<path id="C8-20" d="M219.79 563.324H107.761V641.996H219.79V563.324Z" fill="white" stroke="black" stroke-width="1.38587"/>
<path id="C8-21" d="M219.79 512.176H107.761V564.162H219.79V512.176Z" fill="white" stroke="black" stroke-width="1.38587"/>
<path id="C8-22" d="M219.79 358.731H107.761V513.014H219.79V358.731Z" fill="white" stroke="black" stroke-width="1.38587"/>
<path id="C8-ST" d="M219.79 178.6H107.761V359.568H219.79V178.6Z" fill="white" stroke="black" stroke-width="1.38587"/>
<path id="C8-23" d="M219.791 278.672H161.133V359.568H219.791V278.672Z" fill="white" stroke="black" stroke-width="1.38587"/>
<path id="C8-02" d="M219.79 102.99H107.761V179.438H219.79V102.99Z" fill="white" stroke="black" stroke-width="1.38587"/>
<path id="C8-04" d="M219.79 0.692871H107.761V52.6791H219.79V0.692871Z" fill="white" stroke="black" stroke-width="1.38587"/>
<path id="C8-03" d="M219.79 51.8413H107.761V103.827H219.79V51.8413Z" fill="white" stroke="black" stroke-width="1.38587"/>
<path id="C8-05" d="M73.0172 0.692871H1.01636V52.6791H73.0172V0.692871Z" fill="white" stroke="black" stroke-width="1.38587"/>
<path id="C8-06" d="M73.0172 51.8413H1.01636V103.827H73.0172V51.8413Z" fill="white" stroke="black" stroke-width="1.38587"/>
<path id="C8-07" d="M73.0172 102.99H1.01636V154.976H73.0172V102.99Z" fill="white" stroke="black" stroke-width="1.38587"/>
<path id="C8-08" d="M73.0172 154.138H1.01636V206.124H73.0172V154.138Z" fill="white" stroke="black" stroke-width="1.38587"/>
<path id="C8-09" d="M73.0172 205.286H1.01636V257.272H73.0172V205.286Z" fill="white" stroke="black" stroke-width="1.38587"/>
<path id="C8-10" d="M73.0172 256.434H1.01636V308.421H73.0172V256.434Z" fill="white" stroke="black" stroke-width="1.38587"/>
<path id="C8-12" d="M73.0172 383.193H1.01636V435.179H73.0172V383.193Z" fill="white" stroke="black" stroke-width="1.38587"/>
<path id="C8-14" d="M73.0172 558.875H1.01636V610.862H73.0172V558.875Z" fill="white" stroke="black" stroke-width="1.38587"/>
<path id="C8-15" d="M73.0172 610.024H1.01636V662.01H73.0172V610.024Z" fill="white" stroke="black" stroke-width="1.38587"/>
<path id="C8-16" d="M73.0172 661.172H1.01636V713.158H73.0172V661.172Z" fill="white" stroke="black" stroke-width="1.38587"/>
<path id="C8-17" d="M73.0172 712.32H1.01636V764.306H73.0172V712.32Z" fill="white" stroke="black" stroke-width="1.38587"/>
<path id="C8-11" d="M73.0172 307.583H1.01636V384.031H73.0172V307.583Z" fill="white" stroke="black" stroke-width="1.38587"/>
<path id="C8-13" d="M73.0172 434.341H1.01636V510.79H73.0172V434.341Z" fill="white" stroke="black" stroke-width="1.38587"/>
<path id="C8-13a" d="M73.0172 509.952H1.01636V535.252H73.0172V509.952Z" fill="white" stroke="black" stroke-width="1.38587"/>
<path id="C8-13b" d="M73.0172 534.413H1.01636V559.714H73.0172V534.413Z" fill="white" stroke="black" stroke-width="1.38587"/>
<path id="C8-18" d="M219.79 692.307H107.761V764.308H219.79V692.307Z" fill="white" stroke="black" stroke-width="1.38587"/>
<path id="Hodnik" d="M108.305 0.695068H72.6951V764.305H108.305V0.695068Z" fill="white" stroke="black" stroke-width="1.39"/>
</svg>
