<svg width="318" height="1100" viewBox="0 0 318 1100" fill="none" xmlns="http://www.w3.org/2000/svg">
<g id="Group 26" class="group">
<path id="C8-19" class="room" d="M316.149 921.928H155.062V996.679H316.149V921.928Z" fill="white" stroke="#B3B3B3"/>
<path id="C8-19_2" class="room-name" d="M237.391 970.312C238.594 970.453 239.523 970.898 240.18 971.648C240.831 972.393 241.156 973.385 241.156 974.625C241.156 975.969 240.674 977.047 239.711 977.859C238.747 978.667 237.458 979.07 235.844 979.07H234.75C233.693 979.07 232.763 978.883 231.961 978.508C231.159 978.128 230.544 977.591 230.117 976.898C229.685 976.206 229.469 975.404 229.469 974.492C229.469 973.284 229.807 972.315 230.484 971.586C231.156 970.857 232.089 970.432 233.281 970.312V971.82C232.375 971.951 231.719 972.234 231.312 972.672C230.906 973.104 230.703 973.711 230.703 974.492C230.703 975.451 231.057 976.203 231.766 976.75C232.474 977.292 233.482 977.562 234.789 977.562H235.891C237.125 977.562 238.107 977.305 238.836 976.789C239.565 976.273 239.93 975.552 239.93 974.625C239.93 973.792 239.742 973.154 239.367 972.711C238.987 972.263 238.328 971.966 237.391 971.82V970.312ZM232.594 961.734C233.161 961.734 233.667 961.885 234.109 962.188C234.552 962.484 234.898 962.888 235.148 963.398C235.404 962.805 235.776 962.336 236.266 961.992C236.755 961.643 237.31 961.469 237.93 961.469C238.914 961.469 239.698 961.802 240.281 962.469C240.865 963.13 241.156 964.003 241.156 965.086C241.156 966.18 240.865 967.057 240.281 967.719C239.693 968.375 238.909 968.703 237.93 968.703C237.315 968.703 236.76 968.536 236.266 968.203C235.771 967.865 235.396 967.398 235.141 966.805C234.891 967.31 234.544 967.708 234.102 968C233.659 968.292 233.156 968.438 232.594 968.438C231.635 968.438 230.875 968.13 230.312 967.516C229.75 966.901 229.469 966.091 229.469 965.086C229.469 964.086 229.75 963.279 230.312 962.664C230.875 962.044 231.635 961.734 232.594 961.734ZM237.898 962.914C237.263 962.914 236.745 963.117 236.344 963.523C235.943 963.924 235.742 964.451 235.742 965.102C235.742 965.753 235.94 966.276 236.336 966.672C236.732 967.062 237.253 967.258 237.898 967.258C238.544 967.258 239.052 967.068 239.422 966.688C239.792 966.302 239.977 965.768 239.977 965.086C239.977 964.409 239.792 963.878 239.422 963.492C239.047 963.107 238.539 962.914 237.898 962.914ZM230.656 965.086C230.656 965.654 230.833 966.115 231.188 966.469C231.536 966.818 232.013 966.992 232.617 966.992C233.195 966.992 233.664 966.82 234.023 966.477C234.378 966.128 234.555 965.664 234.555 965.086C234.555 964.508 234.378 964.047 234.023 963.703C233.664 963.354 233.195 963.18 232.617 963.18C232.039 963.18 231.568 963.359 231.203 963.719C230.839 964.078 230.656 964.534 230.656 965.086ZM236.758 956.492V960.305H235.578V956.492H236.758ZM241 950.477V951.93H231.367L232.438 954.844H231.125L229.57 950.703V950.477H241ZM236 940.703C236.359 941.005 236.648 941.367 236.867 941.789C237.086 942.206 237.195 942.664 237.195 943.164C237.195 943.82 237.034 944.393 236.711 944.883C236.388 945.367 235.935 945.742 235.352 946.008C234.763 946.273 234.115 946.406 233.406 946.406C232.646 946.406 231.961 946.263 231.352 945.977C230.742 945.685 230.276 945.273 229.953 944.742C229.63 944.211 229.469 943.591 229.469 942.883C229.469 941.758 229.891 940.872 230.734 940.227C231.573 939.576 232.719 939.25 234.172 939.25H234.594C236.807 939.25 238.424 939.688 239.445 940.562C240.461 941.438 240.982 942.758 241.008 944.523V944.805H239.789V944.5C239.768 943.307 239.458 942.391 238.859 941.75C238.255 941.109 237.302 940.76 236 940.703ZM236 942.93C236 942.445 235.852 942 235.555 941.594C235.258 941.182 234.891 940.883 234.453 940.695H233.875C232.927 940.695 232.156 940.901 231.562 941.312C230.969 941.724 230.672 942.245 230.672 942.875C230.672 943.51 230.917 944.021 231.406 944.406C231.891 944.792 232.531 944.984 233.328 944.984C234.104 944.984 234.745 944.799 235.25 944.43C235.75 944.055 236 943.555 236 942.93Z" fill="black"/>
</g>
<g id="Group 25" class="group">
<path id="C8-20" class="room" d="M316.149 810.008H155.062V923.131H316.149V810.008Z" fill="white" stroke="#B3B3B3"/>
<path id="C8-20_2" class="room-name" d="M237.391 878.312C238.594 878.453 239.523 878.898 240.18 879.648C240.831 880.393 241.156 881.385 241.156 882.625C241.156 883.969 240.674 885.047 239.711 885.859C238.747 886.667 237.458 887.07 235.844 887.07H234.75C233.693 887.07 232.763 886.883 231.961 886.508C231.159 886.128 230.544 885.591 230.117 884.898C229.685 884.206 229.469 883.404 229.469 882.492C229.469 881.284 229.807 880.315 230.484 879.586C231.156 878.857 232.089 878.432 233.281 878.312V879.82C232.375 879.951 231.719 880.234 231.312 880.672C230.906 881.104 230.703 881.711 230.703 882.492C230.703 883.451 231.057 884.203 231.766 884.75C232.474 885.292 233.482 885.562 234.789 885.562H235.891C237.125 885.562 238.107 885.305 238.836 884.789C239.565 884.273 239.93 883.552 239.93 882.625C239.93 881.792 239.742 881.154 239.367 880.711C238.987 880.263 238.328 879.966 237.391 879.82V878.312ZM232.594 869.734C233.161 869.734 233.667 869.885 234.109 870.188C234.552 870.484 234.898 870.888 235.148 871.398C235.404 870.805 235.776 870.336 236.266 869.992C236.755 869.643 237.31 869.469 237.93 869.469C238.914 869.469 239.698 869.802 240.281 870.469C240.865 871.13 241.156 872.003 241.156 873.086C241.156 874.18 240.865 875.057 240.281 875.719C239.693 876.375 238.909 876.703 237.93 876.703C237.315 876.703 236.76 876.536 236.266 876.203C235.771 875.865 235.396 875.398 235.141 874.805C234.891 875.31 234.544 875.708 234.102 876C233.659 876.292 233.156 876.438 232.594 876.438C231.635 876.438 230.875 876.13 230.312 875.516C229.75 874.901 229.469 874.091 229.469 873.086C229.469 872.086 229.75 871.279 230.312 870.664C230.875 870.044 231.635 869.734 232.594 869.734ZM237.898 870.914C237.263 870.914 236.745 871.117 236.344 871.523C235.943 871.924 235.742 872.451 235.742 873.102C235.742 873.753 235.94 874.276 236.336 874.672C236.732 875.062 237.253 875.258 237.898 875.258C238.544 875.258 239.052 875.068 239.422 874.688C239.792 874.302 239.977 873.768 239.977 873.086C239.977 872.409 239.792 871.878 239.422 871.492C239.047 871.107 238.539 870.914 237.898 870.914ZM230.656 873.086C230.656 873.654 230.833 874.115 231.188 874.469C231.536 874.818 232.013 874.992 232.617 874.992C233.195 874.992 233.664 874.82 234.023 874.477C234.378 874.128 234.555 873.664 234.555 873.086C234.555 872.508 234.378 872.047 234.023 871.703C233.664 871.354 233.195 871.18 232.617 871.18C232.039 871.18 231.568 871.359 231.203 871.719C230.839 872.078 230.656 872.534 230.656 873.086ZM236.758 864.492V868.305H235.578V864.492H236.758ZM241 855.773V863.227H239.961L235.586 859.289C234.924 858.706 234.388 858.305 233.977 858.086C233.56 857.862 233.13 857.75 232.688 857.75C232.094 857.75 231.607 857.93 231.227 858.289C230.846 858.648 230.656 859.128 230.656 859.727C230.656 860.445 230.862 861.005 231.273 861.406C231.68 861.802 232.247 862 232.977 862V863.445C231.93 863.445 231.083 863.109 230.438 862.438C229.792 861.76 229.469 860.857 229.469 859.727C229.469 858.669 229.747 857.833 230.305 857.219C230.857 856.604 231.594 856.297 232.516 856.297C233.635 856.297 234.969 857.01 236.516 858.438L239.82 861.484V855.773H241ZM236.148 847.109C237.841 847.109 239.099 847.398 239.922 847.977C240.745 848.555 241.156 849.458 241.156 850.688C241.156 851.901 240.755 852.799 239.953 853.383C239.146 853.966 237.943 854.268 236.344 854.289H234.414C232.742 854.289 231.5 854 230.688 853.422C229.875 852.844 229.469 851.938 229.469 850.703C229.469 849.479 229.862 848.578 230.648 848C231.43 847.422 232.638 847.125 234.273 847.109H236.148ZM234.172 848.555C232.948 848.555 232.057 848.727 231.5 849.07C230.938 849.414 230.656 849.958 230.656 850.703C230.656 851.443 230.935 851.982 231.492 852.32C232.049 852.659 232.906 852.833 234.062 852.844H236.375C237.604 852.844 238.513 852.667 239.102 852.312C239.685 851.953 239.977 851.411 239.977 850.688C239.977 849.974 239.701 849.445 239.148 849.102C238.596 848.753 237.727 848.57 236.539 848.555H234.172Z" fill="black"/>
</g>
<g id="Group 24" class="group">
<path id="C8-21" class="room" d="M316.149 736.462H155.062V811.213H316.149V736.462Z" fill="white" stroke="#B3B3B3"/>
<path id="C8-21_2" class="room-name" d="M237.391 785.312C238.594 785.453 239.523 785.898 240.18 786.648C240.831 787.393 241.156 788.385 241.156 789.625C241.156 790.969 240.674 792.047 239.711 792.859C238.747 793.667 237.458 794.07 235.844 794.07H234.75C233.693 794.07 232.763 793.883 231.961 793.508C231.159 793.128 230.544 792.591 230.117 791.898C229.685 791.206 229.469 790.404 229.469 789.492C229.469 788.284 229.807 787.315 230.484 786.586C231.156 785.857 232.089 785.432 233.281 785.312V786.82C232.375 786.951 231.719 787.234 231.312 787.672C230.906 788.104 230.703 788.711 230.703 789.492C230.703 790.451 231.057 791.203 231.766 791.75C232.474 792.292 233.482 792.562 234.789 792.562H235.891C237.125 792.562 238.107 792.305 238.836 791.789C239.565 791.273 239.93 790.552 239.93 789.625C239.93 788.792 239.742 788.154 239.367 787.711C238.987 787.263 238.328 786.966 237.391 786.82V785.312ZM232.594 776.734C233.161 776.734 233.667 776.885 234.109 777.188C234.552 777.484 234.898 777.888 235.148 778.398C235.404 777.805 235.776 777.336 236.266 776.992C236.755 776.643 237.31 776.469 237.93 776.469C238.914 776.469 239.698 776.802 240.281 777.469C240.865 778.13 241.156 779.003 241.156 780.086C241.156 781.18 240.865 782.057 240.281 782.719C239.693 783.375 238.909 783.703 237.93 783.703C237.315 783.703 236.76 783.536 236.266 783.203C235.771 782.865 235.396 782.398 235.141 781.805C234.891 782.31 234.544 782.708 234.102 783C233.659 783.292 233.156 783.438 232.594 783.438C231.635 783.438 230.875 783.13 230.312 782.516C229.75 781.901 229.469 781.091 229.469 780.086C229.469 779.086 229.75 778.279 230.312 777.664C230.875 777.044 231.635 776.734 232.594 776.734ZM237.898 777.914C237.263 777.914 236.745 778.117 236.344 778.523C235.943 778.924 235.742 779.451 235.742 780.102C235.742 780.753 235.94 781.276 236.336 781.672C236.732 782.062 237.253 782.258 237.898 782.258C238.544 782.258 239.052 782.068 239.422 781.688C239.792 781.302 239.977 780.768 239.977 780.086C239.977 779.409 239.792 778.878 239.422 778.492C239.047 778.107 238.539 777.914 237.898 777.914ZM230.656 780.086C230.656 780.654 230.833 781.115 231.188 781.469C231.536 781.818 232.013 781.992 232.617 781.992C233.195 781.992 233.664 781.82 234.023 781.477C234.378 781.128 234.555 780.664 234.555 780.086C234.555 779.508 234.378 779.047 234.023 778.703C233.664 778.354 233.195 778.18 232.617 778.18C232.039 778.18 231.568 778.359 231.203 778.719C230.839 779.078 230.656 779.534 230.656 780.086ZM236.758 771.492V775.305H235.578V771.492H236.758ZM241 762.773V770.227H239.961L235.586 766.289C234.924 765.706 234.388 765.305 233.977 765.086C233.56 764.862 233.13 764.75 232.688 764.75C232.094 764.75 231.607 764.93 231.227 765.289C230.846 765.648 230.656 766.128 230.656 766.727C230.656 767.445 230.862 768.005 231.273 768.406C231.68 768.802 232.247 769 232.977 769V770.445C231.93 770.445 231.083 770.109 230.438 769.438C229.792 768.76 229.469 767.857 229.469 766.727C229.469 765.669 229.747 764.833 230.305 764.219C230.857 763.604 231.594 763.297 232.516 763.297C233.635 763.297 234.969 764.01 236.516 765.438L239.82 768.484V762.773H241ZM241 756.492V757.945H231.367L232.438 760.859H231.125L229.57 756.719V756.492H241Z" fill="black"/>
</g>
<g id="Group 23" class="group">
<path id="C8-22" class="room" d="M316.149 515.822H155.062V737.667H316.149V515.822Z" fill="white" stroke="#B3B3B3"/>
<path id="C8-22_2" class="room-name" d="M237.391 638.312C238.594 638.453 239.523 638.898 240.18 639.648C240.831 640.393 241.156 641.385 241.156 642.625C241.156 643.969 240.674 645.047 239.711 645.859C238.747 646.667 237.458 647.07 235.844 647.07H234.75C233.693 647.07 232.763 646.883 231.961 646.508C231.159 646.128 230.544 645.591 230.117 644.898C229.685 644.206 229.469 643.404 229.469 642.492C229.469 641.284 229.807 640.315 230.484 639.586C231.156 638.857 232.089 638.432 233.281 638.312V639.82C232.375 639.951 231.719 640.234 231.312 640.672C230.906 641.104 230.703 641.711 230.703 642.492C230.703 643.451 231.057 644.203 231.766 644.75C232.474 645.292 233.482 645.562 234.789 645.562H235.891C237.125 645.562 238.107 645.305 238.836 644.789C239.565 644.273 239.93 643.552 239.93 642.625C239.93 641.792 239.742 641.154 239.367 640.711C238.987 640.263 238.328 639.966 237.391 639.82V638.312ZM232.594 629.734C233.161 629.734 233.667 629.885 234.109 630.188C234.552 630.484 234.898 630.888 235.148 631.398C235.404 630.805 235.776 630.336 236.266 629.992C236.755 629.643 237.31 629.469 237.93 629.469C238.914 629.469 239.698 629.802 240.281 630.469C240.865 631.13 241.156 632.003 241.156 633.086C241.156 634.18 240.865 635.057 240.281 635.719C239.693 636.375 238.909 636.703 237.93 636.703C237.315 636.703 236.76 636.536 236.266 636.203C235.771 635.865 235.396 635.398 235.141 634.805C234.891 635.31 234.544 635.708 234.102 636C233.659 636.292 233.156 636.438 232.594 636.438C231.635 636.438 230.875 636.13 230.312 635.516C229.75 634.901 229.469 634.091 229.469 633.086C229.469 632.086 229.75 631.279 230.312 630.664C230.875 630.044 231.635 629.734 232.594 629.734ZM237.898 630.914C237.263 630.914 236.745 631.117 236.344 631.523C235.943 631.924 235.742 632.451 235.742 633.102C235.742 633.753 235.94 634.276 236.336 634.672C236.732 635.062 237.253 635.258 237.898 635.258C238.544 635.258 239.052 635.068 239.422 634.688C239.792 634.302 239.977 633.768 239.977 633.086C239.977 632.409 239.792 631.878 239.422 631.492C239.047 631.107 238.539 630.914 237.898 630.914ZM230.656 633.086C230.656 633.654 230.833 634.115 231.188 634.469C231.536 634.818 232.013 634.992 232.617 634.992C233.195 634.992 233.664 634.82 234.023 634.477C234.378 634.128 234.555 633.664 234.555 633.086C234.555 632.508 234.378 632.047 234.023 631.703C233.664 631.354 233.195 631.18 232.617 631.18C232.039 631.18 231.568 631.359 231.203 631.719C230.839 632.078 230.656 632.534 230.656 633.086ZM236.758 624.492V628.305H235.578V624.492H236.758ZM241 615.773V623.227H239.961L235.586 619.289C234.924 618.706 234.388 618.305 233.977 618.086C233.56 617.862 233.13 617.75 232.688 617.75C232.094 617.75 231.607 617.93 231.227 618.289C230.846 618.648 230.656 619.128 230.656 619.727C230.656 620.445 230.862 621.005 231.273 621.406C231.68 621.802 232.247 622 232.977 622V623.445C231.93 623.445 231.083 623.109 230.438 622.438C229.792 621.76 229.469 620.857 229.469 619.727C229.469 618.669 229.747 617.833 230.305 617.219C230.857 616.604 231.594 616.297 232.516 616.297C233.635 616.297 234.969 617.01 236.516 618.438L239.82 621.484V615.773H241ZM241 606.789V614.242H239.961L235.586 610.305C234.924 609.721 234.388 609.32 233.977 609.102C233.56 608.878 233.13 608.766 232.688 608.766C232.094 608.766 231.607 608.945 231.227 609.305C230.846 609.664 230.656 610.143 230.656 610.742C230.656 611.461 230.862 612.021 231.273 612.422C231.68 612.818 232.247 613.016 232.977 613.016V614.461C231.93 614.461 231.083 614.125 230.438 613.453C229.792 612.776 229.469 611.872 229.469 610.742C229.469 609.685 229.747 608.849 230.305 608.234C230.857 607.62 231.594 607.312 232.516 607.312C233.635 607.312 234.969 608.026 236.516 609.453L239.82 612.5V606.789H241Z" fill="black"/>
</g>
<g id="Group 22" class="group">
<path id="C8-ST" class="room" d="M316.149 256.811H155.062V517.026H316.149V256.811Z" fill="white" stroke="#B3B3B3"/>
<path id="C8-ST_2" class="room-name" d="M237.391 353.312C238.594 353.453 239.523 353.898 240.18 354.648C240.831 355.393 241.156 356.385 241.156 357.625C241.156 358.969 240.674 360.047 239.711 360.859C238.747 361.667 237.458 362.07 235.844 362.07H234.75C233.693 362.07 232.763 361.883 231.961 361.508C231.159 361.128 230.544 360.591 230.117 359.898C229.685 359.206 229.469 358.404 229.469 357.492C229.469 356.284 229.807 355.315 230.484 354.586C231.156 353.857 232.089 353.432 233.281 353.312V354.82C232.375 354.951 231.719 355.234 231.312 355.672C230.906 356.104 230.703 356.711 230.703 357.492C230.703 358.451 231.057 359.203 231.766 359.75C232.474 360.292 233.482 360.562 234.789 360.562H235.891C237.125 360.562 238.107 360.305 238.836 359.789C239.565 359.273 239.93 358.552 239.93 357.625C239.93 356.792 239.742 356.154 239.367 355.711C238.987 355.263 238.328 354.966 237.391 354.82V353.312ZM232.594 344.734C233.161 344.734 233.667 344.885 234.109 345.188C234.552 345.484 234.898 345.888 235.148 346.398C235.404 345.805 235.776 345.336 236.266 344.992C236.755 344.643 237.31 344.469 237.93 344.469C238.914 344.469 239.698 344.802 240.281 345.469C240.865 346.13 241.156 347.003 241.156 348.086C241.156 349.18 240.865 350.057 240.281 350.719C239.693 351.375 238.909 351.703 237.93 351.703C237.315 351.703 236.76 351.536 236.266 351.203C235.771 350.865 235.396 350.398 235.141 349.805C234.891 350.31 234.544 350.708 234.102 351C233.659 351.292 233.156 351.438 232.594 351.438C231.635 351.438 230.875 351.13 230.312 350.516C229.75 349.901 229.469 349.091 229.469 348.086C229.469 347.086 229.75 346.279 230.312 345.664C230.875 345.044 231.635 344.734 232.594 344.734ZM237.898 345.914C237.263 345.914 236.745 346.117 236.344 346.523C235.943 346.924 235.742 347.451 235.742 348.102C235.742 348.753 235.94 349.276 236.336 349.672C236.732 350.062 237.253 350.258 237.898 350.258C238.544 350.258 239.052 350.068 239.422 349.688C239.792 349.302 239.977 348.768 239.977 348.086C239.977 347.409 239.792 346.878 239.422 346.492C239.047 346.107 238.539 345.914 237.898 345.914ZM230.656 348.086C230.656 348.654 230.833 349.115 231.188 349.469C231.536 349.818 232.013 349.992 232.617 349.992C233.195 349.992 233.664 349.82 234.023 349.477C234.378 349.128 234.555 348.664 234.555 348.086C234.555 347.508 234.378 347.047 234.023 346.703C233.664 346.354 233.195 346.18 232.617 346.18C232.039 346.18 231.568 346.359 231.203 346.719C230.839 347.078 230.656 347.534 230.656 348.086ZM236.758 339.492V343.305H235.578V339.492H236.758ZM235.93 334.5C235.56 335.786 235.107 336.724 234.57 337.312C234.029 337.896 233.362 338.188 232.57 338.188C231.674 338.188 230.935 337.831 230.352 337.117C229.763 336.398 229.469 335.466 229.469 334.32C229.469 333.539 229.62 332.844 229.922 332.234C230.224 331.62 230.641 331.146 231.172 330.812C231.703 330.474 232.284 330.305 232.914 330.305V331.812C232.227 331.812 231.688 332.031 231.297 332.469C230.901 332.906 230.703 333.523 230.703 334.32C230.703 335.06 230.867 335.638 231.195 336.055C231.518 336.466 231.969 336.672 232.547 336.672C233.01 336.672 233.404 336.477 233.727 336.086C234.044 335.69 234.336 335.021 234.602 334.078C234.867 333.13 235.161 332.391 235.484 331.859C235.802 331.323 236.174 330.927 236.602 330.672C237.029 330.411 237.531 330.281 238.109 330.281C239.031 330.281 239.771 330.641 240.328 331.359C240.88 332.078 241.156 333.039 241.156 334.242C241.156 335.023 241.008 335.753 240.711 336.43C240.409 337.107 239.997 337.63 239.477 338C238.956 338.365 238.365 338.547 237.703 338.547V337.039C238.391 337.039 238.935 336.786 239.336 336.281C239.732 335.771 239.93 335.091 239.93 334.242C239.93 333.451 239.768 332.844 239.445 332.422C239.122 332 238.682 331.789 238.125 331.789C237.568 331.789 237.138 331.984 236.836 332.375C236.529 332.766 236.227 333.474 235.93 334.5ZM230.859 320.492V324.148H241V325.641H230.859V329.289H229.625V320.492H230.859Z" fill="black"/>
</g>
<g id="Group 21" class="group">
<path id="C8-23" class="room" d="M316.151 400.705H231.806V517.026H316.151V400.705Z" fill="white" stroke="#B3B3B3"/>
<path id="C8-23_2" class="room-name" d="M275.391 470.312C276.594 470.453 277.523 470.898 278.18 471.648C278.831 472.393 279.156 473.385 279.156 474.625C279.156 475.969 278.674 477.047 277.711 477.859C276.747 478.667 275.458 479.07 273.844 479.07H272.75C271.693 479.07 270.763 478.883 269.961 478.508C269.159 478.128 268.544 477.591 268.117 476.898C267.685 476.206 267.469 475.404 267.469 474.492C267.469 473.284 267.807 472.315 268.484 471.586C269.156 470.857 270.089 470.432 271.281 470.312V471.82C270.375 471.951 269.719 472.234 269.312 472.672C268.906 473.104 268.703 473.711 268.703 474.492C268.703 475.451 269.057 476.203 269.766 476.75C270.474 477.292 271.482 477.562 272.789 477.562H273.891C275.125 477.562 276.107 477.305 276.836 476.789C277.565 476.273 277.93 475.552 277.93 474.625C277.93 473.792 277.742 473.154 277.367 472.711C276.987 472.263 276.328 471.966 275.391 471.82V470.312ZM270.594 461.734C271.161 461.734 271.667 461.885 272.109 462.188C272.552 462.484 272.898 462.888 273.148 463.398C273.404 462.805 273.776 462.336 274.266 461.992C274.755 461.643 275.31 461.469 275.93 461.469C276.914 461.469 277.698 461.802 278.281 462.469C278.865 463.13 279.156 464.003 279.156 465.086C279.156 466.18 278.865 467.057 278.281 467.719C277.693 468.375 276.909 468.703 275.93 468.703C275.315 468.703 274.76 468.536 274.266 468.203C273.771 467.865 273.396 467.398 273.141 466.805C272.891 467.31 272.544 467.708 272.102 468C271.659 468.292 271.156 468.438 270.594 468.438C269.635 468.438 268.875 468.13 268.312 467.516C267.75 466.901 267.469 466.091 267.469 465.086C267.469 464.086 267.75 463.279 268.312 462.664C268.875 462.044 269.635 461.734 270.594 461.734ZM275.898 462.914C275.263 462.914 274.745 463.117 274.344 463.523C273.943 463.924 273.742 464.451 273.742 465.102C273.742 465.753 273.94 466.276 274.336 466.672C274.732 467.062 275.253 467.258 275.898 467.258C276.544 467.258 277.052 467.068 277.422 466.688C277.792 466.302 277.977 465.768 277.977 465.086C277.977 464.409 277.792 463.878 277.422 463.492C277.047 463.107 276.539 462.914 275.898 462.914ZM268.656 465.086C268.656 465.654 268.833 466.115 269.188 466.469C269.536 466.818 270.013 466.992 270.617 466.992C271.195 466.992 271.664 466.82 272.023 466.477C272.378 466.128 272.555 465.664 272.555 465.086C272.555 464.508 272.378 464.047 272.023 463.703C271.664 463.354 271.195 463.18 270.617 463.18C270.039 463.18 269.568 463.359 269.203 463.719C268.839 464.078 268.656 464.534 268.656 465.086ZM274.758 456.492V460.305H273.578V456.492H274.758ZM279 447.773V455.227H277.961L273.586 451.289C272.924 450.706 272.388 450.305 271.977 450.086C271.56 449.862 271.13 449.75 270.688 449.75C270.094 449.75 269.607 449.93 269.227 450.289C268.846 450.648 268.656 451.128 268.656 451.727C268.656 452.445 268.862 453.005 269.273 453.406C269.68 453.802 270.247 454 270.977 454V455.445C269.93 455.445 269.083 455.109 268.438 454.438C267.792 453.76 267.469 452.857 267.469 451.727C267.469 450.669 267.747 449.833 268.305 449.219C268.857 448.604 269.594 448.297 270.516 448.297C271.635 448.297 272.969 449.01 274.516 450.438L277.82 453.484V447.773H279ZM272.609 444.141V443.055C272.599 442.372 272.419 441.836 272.07 441.445C271.721 441.055 271.25 440.859 270.656 440.859C269.323 440.859 268.656 441.523 268.656 442.852C268.656 443.477 268.836 443.977 269.195 444.352C269.549 444.721 270.021 444.906 270.609 444.906V446.352C269.708 446.352 268.961 446.023 268.367 445.367C267.768 444.706 267.469 443.867 267.469 442.852C267.469 441.779 267.753 440.938 268.32 440.328C268.888 439.719 269.677 439.414 270.688 439.414C271.182 439.414 271.661 439.576 272.125 439.898C272.589 440.216 272.935 440.651 273.164 441.203C273.362 440.578 273.69 440.096 274.148 439.758C274.607 439.414 275.167 439.242 275.828 439.242C276.849 439.242 277.659 439.576 278.258 440.242C278.857 440.909 279.156 441.776 279.156 442.844C279.156 443.911 278.867 444.781 278.289 445.453C277.711 446.12 276.948 446.453 276 446.453V445C276.599 445 277.078 444.805 277.438 444.414C277.797 444.023 277.977 443.5 277.977 442.844C277.977 442.146 277.794 441.612 277.43 441.242C277.065 440.872 276.542 440.688 275.859 440.688C275.198 440.688 274.69 440.891 274.336 441.297C273.982 441.703 273.799 442.289 273.789 443.055V444.141H272.609Z" fill="black"/>
</g>
<g id="Group 20" class="group">
<path id="C8-02" class="room" d="M316.149 148.09H155.062V258.015H316.149V148.09Z" fill="white" stroke="#B3B3B3"/>
<path id="C8-02_2" class="room-name" d="M237.391 214.312C238.594 214.453 239.523 214.898 240.18 215.648C240.831 216.393 241.156 217.385 241.156 218.625C241.156 219.969 240.674 221.047 239.711 221.859C238.747 222.667 237.458 223.07 235.844 223.07H234.75C233.693 223.07 232.763 222.883 231.961 222.508C231.159 222.128 230.544 221.591 230.117 220.898C229.685 220.206 229.469 219.404 229.469 218.492C229.469 217.284 229.807 216.315 230.484 215.586C231.156 214.857 232.089 214.432 233.281 214.312V215.82C232.375 215.951 231.719 216.234 231.312 216.672C230.906 217.104 230.703 217.711 230.703 218.492C230.703 219.451 231.057 220.203 231.766 220.75C232.474 221.292 233.482 221.562 234.789 221.562H235.891C237.125 221.562 238.107 221.305 238.836 220.789C239.565 220.273 239.93 219.552 239.93 218.625C239.93 217.792 239.742 217.154 239.367 216.711C238.987 216.263 238.328 215.966 237.391 215.82V214.312ZM232.594 205.734C233.161 205.734 233.667 205.885 234.109 206.188C234.552 206.484 234.898 206.888 235.148 207.398C235.404 206.805 235.776 206.336 236.266 205.992C236.755 205.643 237.31 205.469 237.93 205.469C238.914 205.469 239.698 205.802 240.281 206.469C240.865 207.13 241.156 208.003 241.156 209.086C241.156 210.18 240.865 211.057 240.281 211.719C239.693 212.375 238.909 212.703 237.93 212.703C237.315 212.703 236.76 212.536 236.266 212.203C235.771 211.865 235.396 211.398 235.141 210.805C234.891 211.31 234.544 211.708 234.102 212C233.659 212.292 233.156 212.438 232.594 212.438C231.635 212.438 230.875 212.13 230.312 211.516C229.75 210.901 229.469 210.091 229.469 209.086C229.469 208.086 229.75 207.279 230.312 206.664C230.875 206.044 231.635 205.734 232.594 205.734ZM237.898 206.914C237.263 206.914 236.745 207.117 236.344 207.523C235.943 207.924 235.742 208.451 235.742 209.102C235.742 209.753 235.94 210.276 236.336 210.672C236.732 211.062 237.253 211.258 237.898 211.258C238.544 211.258 239.052 211.068 239.422 210.688C239.792 210.302 239.977 209.768 239.977 209.086C239.977 208.409 239.792 207.878 239.422 207.492C239.047 207.107 238.539 206.914 237.898 206.914ZM230.656 209.086C230.656 209.654 230.833 210.115 231.188 210.469C231.536 210.818 232.013 210.992 232.617 210.992C233.195 210.992 233.664 210.82 234.023 210.477C234.378 210.128 234.555 209.664 234.555 209.086C234.555 208.508 234.378 208.047 234.023 207.703C233.664 207.354 233.195 207.18 232.617 207.18C232.039 207.18 231.568 207.359 231.203 207.719C230.839 208.078 230.656 208.534 230.656 209.086ZM236.758 200.492V204.305H235.578V200.492H236.758ZM236.148 192.094C237.841 192.094 239.099 192.383 239.922 192.961C240.745 193.539 241.156 194.443 241.156 195.672C241.156 196.885 240.755 197.784 239.953 198.367C239.146 198.951 237.943 199.253 236.344 199.273H234.414C232.742 199.273 231.5 198.984 230.688 198.406C229.875 197.828 229.469 196.922 229.469 195.688C229.469 194.464 229.862 193.562 230.648 192.984C231.43 192.406 232.638 192.109 234.273 192.094H236.148ZM234.172 193.539C232.948 193.539 232.057 193.711 231.5 194.055C230.938 194.398 230.656 194.943 230.656 195.688C230.656 196.427 230.935 196.966 231.492 197.305C232.049 197.643 232.906 197.818 234.062 197.828H236.375C237.604 197.828 238.513 197.651 239.102 197.297C239.685 196.938 239.977 196.396 239.977 195.672C239.977 194.958 239.701 194.43 239.148 194.086C238.596 193.737 237.727 193.555 236.539 193.539H234.172ZM241 182.789V190.242H239.961L235.586 186.305C234.924 185.721 234.388 185.32 233.977 185.102C233.56 184.878 233.13 184.766 232.688 184.766C232.094 184.766 231.607 184.945 231.227 185.305C230.846 185.664 230.656 186.143 230.656 186.742C230.656 187.461 230.862 188.021 231.273 188.422C231.68 188.818 232.247 189.016 232.977 189.016V190.461C231.93 190.461 231.083 190.125 230.438 189.453C229.792 188.776 229.469 187.872 229.469 186.742C229.469 185.685 229.747 184.849 230.305 184.234C230.857 183.62 231.594 183.312 232.516 183.312C233.635 183.312 234.969 184.026 236.516 185.453L239.82 188.5V182.789H241Z" fill="black"/>
</g>
<g id="Group 4" class="group">
<path id="C8-04" class="room" d="M316.149 0.996338H155.062V75.7478H316.149V0.996338Z" fill="white" stroke="#B3B3B3"/>
<path id="C8-04_2" class="room-name" d="M237.391 49.3125C238.594 49.4531 239.523 49.8984 240.18 50.6484C240.831 51.3932 241.156 52.3854 241.156 53.625C241.156 54.9688 240.674 56.0469 239.711 56.8594C238.747 57.6667 237.458 58.0703 235.844 58.0703H234.75C233.693 58.0703 232.763 57.8828 231.961 57.5078C231.159 57.1276 230.544 56.5911 230.117 55.8984C229.685 55.2057 229.469 54.4036 229.469 53.4922C229.469 52.2839 229.807 51.3151 230.484 50.5859C231.156 49.8568 232.089 49.4323 233.281 49.3125V50.8203C232.375 50.9505 231.719 51.2344 231.312 51.6719C230.906 52.1042 230.703 52.7109 230.703 53.4922C230.703 54.4505 231.057 55.2031 231.766 55.75C232.474 56.2917 233.482 56.5625 234.789 56.5625H235.891C237.125 56.5625 238.107 56.3047 238.836 55.7891C239.565 55.2734 239.93 54.5521 239.93 53.625C239.93 52.7917 239.742 52.1536 239.367 51.7109C238.987 51.263 238.328 50.9661 237.391 50.8203V49.3125ZM232.594 40.7344C233.161 40.7344 233.667 40.8854 234.109 41.1875C234.552 41.4844 234.898 41.888 235.148 42.3984C235.404 41.8047 235.776 41.3359 236.266 40.9922C236.755 40.6432 237.31 40.4688 237.93 40.4688C238.914 40.4688 239.698 40.8021 240.281 41.4688C240.865 42.1302 241.156 43.0026 241.156 44.0859C241.156 45.1797 240.865 46.0573 240.281 46.7188C239.693 47.375 238.909 47.7031 237.93 47.7031C237.315 47.7031 236.76 47.5365 236.266 47.2031C235.771 46.8646 235.396 46.3984 235.141 45.8047C234.891 46.3099 234.544 46.7083 234.102 47C233.659 47.2917 233.156 47.4375 232.594 47.4375C231.635 47.4375 230.875 47.1302 230.312 46.5156C229.75 45.901 229.469 45.0911 229.469 44.0859C229.469 43.0859 229.75 42.2786 230.312 41.6641C230.875 41.0443 231.635 40.7344 232.594 40.7344ZM237.898 41.9141C237.263 41.9141 236.745 42.1172 236.344 42.5234C235.943 42.9245 235.742 43.4505 235.742 44.1016C235.742 44.7526 235.94 45.276 236.336 45.6719C236.732 46.0625 237.253 46.2578 237.898 46.2578C238.544 46.2578 239.052 46.0677 239.422 45.6875C239.792 45.3021 239.977 44.7682 239.977 44.0859C239.977 43.4089 239.792 42.8776 239.422 42.4922C239.047 42.1068 238.539 41.9141 237.898 41.9141ZM230.656 44.0859C230.656 44.6536 230.833 45.1146 231.188 45.4688C231.536 45.8177 232.013 45.9922 232.617 45.9922C233.195 45.9922 233.664 45.8203 234.023 45.4766C234.378 45.1276 234.555 44.6641 234.555 44.0859C234.555 43.5078 234.378 43.0469 234.023 42.7031C233.664 42.3542 233.195 42.1797 232.617 42.1797C232.039 42.1797 231.568 42.3594 231.203 42.7188C230.839 43.0781 230.656 43.5339 230.656 44.0859ZM236.758 35.4922V39.3047H235.578V35.4922H236.758ZM236.148 27.0938C237.841 27.0938 239.099 27.3828 239.922 27.9609C240.745 28.5391 241.156 29.4427 241.156 30.6719C241.156 31.8854 240.755 32.7839 239.953 33.3672C239.146 33.9505 237.943 34.2526 236.344 34.2734H234.414C232.742 34.2734 231.5 33.9844 230.688 33.4062C229.875 32.8281 229.469 31.9219 229.469 30.6875C229.469 29.4635 229.862 28.5625 230.648 27.9844C231.43 27.4062 232.638 27.1094 234.273 27.0938H236.148ZM234.172 28.5391C232.948 28.5391 232.057 28.7109 231.5 29.0547C230.938 29.3984 230.656 29.9427 230.656 30.6875C230.656 31.4271 230.935 31.9661 231.492 32.3047C232.049 32.6432 232.906 32.8177 234.062 32.8281H236.375C237.604 32.8281 238.513 32.651 239.102 32.2969C239.685 31.9375 239.977 31.3958 239.977 30.6719C239.977 29.9583 239.701 29.4297 239.148 29.0859C238.596 28.737 237.727 28.5547 236.539 28.5391H234.172ZM237.18 19.1406V17.5625H238.359V19.1406H241V20.5938H238.359V25.7734H237.508L229.625 20.6797V19.1406H237.18ZM237.18 24.1328V20.5938H231.602L231.914 20.7656L237.18 24.1328Z" fill="black"/>
</g>
<g id="Group 19" class="group">
<path id="C8-03" class="room" d="M316.149 74.543H155.062V149.294H316.149V74.543Z" fill="white" stroke="#B3B3B3"/>
<path id="C8-03_2" class="room-name" d="M237.391 123.312C238.594 123.453 239.523 123.898 240.18 124.648C240.831 125.393 241.156 126.385 241.156 127.625C241.156 128.969 240.674 130.047 239.711 130.859C238.747 131.667 237.458 132.07 235.844 132.07H234.75C233.693 132.07 232.763 131.883 231.961 131.508C231.159 131.128 230.544 130.591 230.117 129.898C229.685 129.206 229.469 128.404 229.469 127.492C229.469 126.284 229.807 125.315 230.484 124.586C231.156 123.857 232.089 123.432 233.281 123.312V124.82C232.375 124.951 231.719 125.234 231.312 125.672C230.906 126.104 230.703 126.711 230.703 127.492C230.703 128.451 231.057 129.203 231.766 129.75C232.474 130.292 233.482 130.562 234.789 130.562H235.891C237.125 130.562 238.107 130.305 238.836 129.789C239.565 129.273 239.93 128.552 239.93 127.625C239.93 126.792 239.742 126.154 239.367 125.711C238.987 125.263 238.328 124.966 237.391 124.82V123.312ZM232.594 114.734C233.161 114.734 233.667 114.885 234.109 115.188C234.552 115.484 234.898 115.888 235.148 116.398C235.404 115.805 235.776 115.336 236.266 114.992C236.755 114.643 237.31 114.469 237.93 114.469C238.914 114.469 239.698 114.802 240.281 115.469C240.865 116.13 241.156 117.003 241.156 118.086C241.156 119.18 240.865 120.057 240.281 120.719C239.693 121.375 238.909 121.703 237.93 121.703C237.315 121.703 236.76 121.536 236.266 121.203C235.771 120.865 235.396 120.398 235.141 119.805C234.891 120.31 234.544 120.708 234.102 121C233.659 121.292 233.156 121.438 232.594 121.438C231.635 121.438 230.875 121.13 230.312 120.516C229.75 119.901 229.469 119.091 229.469 118.086C229.469 117.086 229.75 116.279 230.312 115.664C230.875 115.044 231.635 114.734 232.594 114.734ZM237.898 115.914C237.263 115.914 236.745 116.117 236.344 116.523C235.943 116.924 235.742 117.451 235.742 118.102C235.742 118.753 235.94 119.276 236.336 119.672C236.732 120.062 237.253 120.258 237.898 120.258C238.544 120.258 239.052 120.068 239.422 119.688C239.792 119.302 239.977 118.768 239.977 118.086C239.977 117.409 239.792 116.878 239.422 116.492C239.047 116.107 238.539 115.914 237.898 115.914ZM230.656 118.086C230.656 118.654 230.833 119.115 231.188 119.469C231.536 119.818 232.013 119.992 232.617 119.992C233.195 119.992 233.664 119.82 234.023 119.477C234.378 119.128 234.555 118.664 234.555 118.086C234.555 117.508 234.378 117.047 234.023 116.703C233.664 116.354 233.195 116.18 232.617 116.18C232.039 116.18 231.568 116.359 231.203 116.719C230.839 117.078 230.656 117.534 230.656 118.086ZM236.758 109.492V113.305H235.578V109.492H236.758ZM236.148 101.094C237.841 101.094 239.099 101.383 239.922 101.961C240.745 102.539 241.156 103.443 241.156 104.672C241.156 105.885 240.755 106.784 239.953 107.367C239.146 107.951 237.943 108.253 236.344 108.273H234.414C232.742 108.273 231.5 107.984 230.688 107.406C229.875 106.828 229.469 105.922 229.469 104.688C229.469 103.464 229.862 102.562 230.648 101.984C231.43 101.406 232.638 101.109 234.273 101.094H236.148ZM234.172 102.539C232.948 102.539 232.057 102.711 231.5 103.055C230.938 103.398 230.656 103.943 230.656 104.688C230.656 105.427 230.935 105.966 231.492 106.305C232.049 106.643 232.906 106.818 234.062 106.828H236.375C237.604 106.828 238.513 106.651 239.102 106.297C239.685 105.938 239.977 105.396 239.977 104.672C239.977 103.958 239.701 103.43 239.148 103.086C238.596 102.737 237.727 102.555 236.539 102.539H234.172ZM234.609 97.1406V96.0547C234.599 95.3724 234.419 94.8359 234.07 94.4453C233.721 94.0547 233.25 93.8594 232.656 93.8594C231.323 93.8594 230.656 94.5234 230.656 95.8516C230.656 96.4766 230.836 96.9766 231.195 97.3516C231.549 97.7214 232.021 97.9062 232.609 97.9062V99.3516C231.708 99.3516 230.961 99.0234 230.367 98.3672C229.768 97.7057 229.469 96.8672 229.469 95.8516C229.469 94.7786 229.753 93.9375 230.32 93.3281C230.888 92.7188 231.677 92.4141 232.688 92.4141C233.182 92.4141 233.661 92.5755 234.125 92.8984C234.589 93.2161 234.935 93.651 235.164 94.2031C235.362 93.5781 235.69 93.0964 236.148 92.7578C236.607 92.4141 237.167 92.2422 237.828 92.2422C238.849 92.2422 239.659 92.5755 240.258 93.2422C240.857 93.9089 241.156 94.776 241.156 95.8438C241.156 96.9115 240.867 97.7812 240.289 98.4531C239.711 99.1198 238.948 99.4531 238 99.4531V98C238.599 98 239.078 97.8047 239.438 97.4141C239.797 97.0234 239.977 96.5 239.977 95.8438C239.977 95.1458 239.794 94.612 239.43 94.2422C239.065 93.8724 238.542 93.6875 237.859 93.6875C237.198 93.6875 236.69 93.8906 236.336 94.2969C235.982 94.7031 235.799 95.2891 235.789 96.0547V97.1406H234.609Z" fill="black"/>
</g>
<g id="Group 5" class="group">
<path id="C8-06" class="room" d="M105.103 74.543H1.57251V149.294H105.103V74.543Z" fill="white" stroke="#B3B3B3"/>
<path id="C8-06_2" class="room-name" d="M54.3906 123.312C55.5938 123.453 56.5234 123.898 57.1797 124.648C57.8307 125.393 58.1562 126.385 58.1562 127.625C58.1562 128.969 57.6745 130.047 56.7109 130.859C55.7474 131.667 54.4583 132.07 52.8438 132.07H51.75C50.6927 132.07 49.763 131.883 48.9609 131.508C48.1589 131.128 47.5443 130.591 47.1172 129.898C46.6849 129.206 46.4688 128.404 46.4688 127.492C46.4688 126.284 46.8073 125.315 47.4844 124.586C48.1562 123.857 49.0885 123.432 50.2812 123.312V124.82C49.375 124.951 48.7188 125.234 48.3125 125.672C47.9062 126.104 47.7031 126.711 47.7031 127.492C47.7031 128.451 48.0573 129.203 48.7656 129.75C49.474 130.292 50.4818 130.562 51.7891 130.562H52.8906C54.125 130.562 55.1068 130.305 55.8359 129.789C56.5651 129.273 56.9297 128.552 56.9297 127.625C56.9297 126.792 56.7422 126.154 56.3672 125.711C55.987 125.263 55.3281 124.966 54.3906 124.82V123.312ZM49.5938 114.734C50.1615 114.734 50.6667 114.885 51.1094 115.188C51.5521 115.484 51.8984 115.888 52.1484 116.398C52.4036 115.805 52.776 115.336 53.2656 114.992C53.7552 114.643 54.3099 114.469 54.9297 114.469C55.9141 114.469 56.6979 114.802 57.2812 115.469C57.8646 116.13 58.1562 117.003 58.1562 118.086C58.1562 119.18 57.8646 120.057 57.2812 120.719C56.6927 121.375 55.9089 121.703 54.9297 121.703C54.3151 121.703 53.7604 121.536 53.2656 121.203C52.7708 120.865 52.3958 120.398 52.1406 119.805C51.8906 120.31 51.5443 120.708 51.1016 121C50.6589 121.292 50.1562 121.438 49.5938 121.438C48.6354 121.438 47.875 121.13 47.3125 120.516C46.75 119.901 46.4688 119.091 46.4688 118.086C46.4688 117.086 46.75 116.279 47.3125 115.664C47.875 115.044 48.6354 114.734 49.5938 114.734ZM54.8984 115.914C54.263 115.914 53.7448 116.117 53.3438 116.523C52.9427 116.924 52.7422 117.451 52.7422 118.102C52.7422 118.753 52.9401 119.276 53.3359 119.672C53.7318 120.062 54.2526 120.258 54.8984 120.258C55.5443 120.258 56.0521 120.068 56.4219 119.688C56.7917 119.302 56.9766 118.768 56.9766 118.086C56.9766 117.409 56.7917 116.878 56.4219 116.492C56.0469 116.107 55.5391 115.914 54.8984 115.914ZM47.6562 118.086C47.6562 118.654 47.8333 119.115 48.1875 119.469C48.5365 119.818 49.013 119.992 49.6172 119.992C50.1953 119.992 50.6641 119.82 51.0234 119.477C51.3776 119.128 51.5547 118.664 51.5547 118.086C51.5547 117.508 51.3776 117.047 51.0234 116.703C50.6641 116.354 50.1953 116.18 49.6172 116.18C49.0391 116.18 48.5677 116.359 48.2031 116.719C47.8385 117.078 47.6562 117.534 47.6562 118.086ZM53.7578 109.492V113.305H52.5781V109.492H53.7578ZM53.1484 101.094C54.8411 101.094 56.099 101.383 56.9219 101.961C57.7448 102.539 58.1562 103.443 58.1562 104.672C58.1562 105.885 57.7552 106.784 56.9531 107.367C56.1458 107.951 54.9427 108.253 53.3438 108.273H51.4141C49.7422 108.273 48.5 107.984 47.6875 107.406C46.875 106.828 46.4688 105.922 46.4688 104.688C46.4688 103.464 46.862 102.562 47.6484 101.984C48.4297 101.406 49.638 101.109 51.2734 101.094H53.1484ZM51.1719 102.539C49.9479 102.539 49.0573 102.711 48.5 103.055C47.9375 103.398 47.6562 103.943 47.6562 104.688C47.6562 105.427 47.9349 105.966 48.4922 106.305C49.0495 106.643 49.9062 106.818 51.0625 106.828H53.375C54.6042 106.828 55.513 106.651 56.1016 106.297C56.6849 105.938 56.9766 105.396 56.9766 104.672C56.9766 103.958 56.7005 103.43 56.1484 103.086C55.5964 102.737 54.7266 102.555 53.5391 102.539H51.1719ZM46.6172 93.5703H47.8438V93.8359C47.8646 94.9609 48.1979 95.8568 48.8438 96.5234C49.4896 97.1901 50.3984 97.5755 51.5703 97.6797C50.8828 97.0807 50.5391 96.263 50.5391 95.2266C50.5391 94.237 50.888 93.4479 51.5859 92.8594C52.2839 92.2656 53.1849 91.9688 54.2891 91.9688C55.4609 91.9688 56.3984 92.2891 57.1016 92.9297C57.8047 93.5651 58.1562 94.4193 58.1562 95.4922C58.1562 96.5807 57.7396 97.4635 56.9062 98.1406C56.0677 98.8177 54.9896 99.1562 53.6719 99.1562H53.1172C51.0234 99.1562 49.4245 98.7109 48.3203 97.8203C47.2109 96.9245 46.6432 95.5938 46.6172 93.8281V93.5703ZM51.7422 95.4688C51.7422 95.9635 51.8906 96.4193 52.1875 96.8359C52.4844 97.2526 52.8568 97.5417 53.3047 97.7031H53.8359C54.7734 97.7031 55.5286 97.4922 56.1016 97.0703C56.6745 96.6484 56.9609 96.1224 56.9609 95.4922C56.9609 94.8411 56.7214 94.3307 56.2422 93.9609C55.763 93.5859 55.1354 93.3984 54.3594 93.3984C53.5781 93.3984 52.9479 93.5885 52.4688 93.9688C51.9844 94.3438 51.7422 94.8438 51.7422 95.4688Z" fill="black"/>
</g>
<g id="Group 6" class="group">
<path id="C8-07" class="room" d="M105.103 148.09H1.57251V222.841H105.103V148.09Z" fill="white" stroke="#B3B3B3"/>
<path id="C8-07_2" class="room-name" d="M54.3906 196.312C55.5938 196.453 56.5234 196.898 57.1797 197.648C57.8307 198.393 58.1562 199.385 58.1562 200.625C58.1562 201.969 57.6745 203.047 56.7109 203.859C55.7474 204.667 54.4583 205.07 52.8438 205.07H51.75C50.6927 205.07 49.763 204.883 48.9609 204.508C48.1589 204.128 47.5443 203.591 47.1172 202.898C46.6849 202.206 46.4688 201.404 46.4688 200.492C46.4688 199.284 46.8073 198.315 47.4844 197.586C48.1562 196.857 49.0885 196.432 50.2812 196.312V197.82C49.375 197.951 48.7188 198.234 48.3125 198.672C47.9062 199.104 47.7031 199.711 47.7031 200.492C47.7031 201.451 48.0573 202.203 48.7656 202.75C49.474 203.292 50.4818 203.562 51.7891 203.562H52.8906C54.125 203.562 55.1068 203.305 55.8359 202.789C56.5651 202.273 56.9297 201.552 56.9297 200.625C56.9297 199.792 56.7422 199.154 56.3672 198.711C55.987 198.263 55.3281 197.966 54.3906 197.82V196.312ZM49.5938 187.734C50.1615 187.734 50.6667 187.885 51.1094 188.188C51.5521 188.484 51.8984 188.888 52.1484 189.398C52.4036 188.805 52.776 188.336 53.2656 187.992C53.7552 187.643 54.3099 187.469 54.9297 187.469C55.9141 187.469 56.6979 187.802 57.2812 188.469C57.8646 189.13 58.1562 190.003 58.1562 191.086C58.1562 192.18 57.8646 193.057 57.2812 193.719C56.6927 194.375 55.9089 194.703 54.9297 194.703C54.3151 194.703 53.7604 194.536 53.2656 194.203C52.7708 193.865 52.3958 193.398 52.1406 192.805C51.8906 193.31 51.5443 193.708 51.1016 194C50.6589 194.292 50.1562 194.438 49.5938 194.438C48.6354 194.438 47.875 194.13 47.3125 193.516C46.75 192.901 46.4688 192.091 46.4688 191.086C46.4688 190.086 46.75 189.279 47.3125 188.664C47.875 188.044 48.6354 187.734 49.5938 187.734ZM54.8984 188.914C54.263 188.914 53.7448 189.117 53.3438 189.523C52.9427 189.924 52.7422 190.451 52.7422 191.102C52.7422 191.753 52.9401 192.276 53.3359 192.672C53.7318 193.062 54.2526 193.258 54.8984 193.258C55.5443 193.258 56.0521 193.068 56.4219 192.688C56.7917 192.302 56.9766 191.768 56.9766 191.086C56.9766 190.409 56.7917 189.878 56.4219 189.492C56.0469 189.107 55.5391 188.914 54.8984 188.914ZM47.6562 191.086C47.6562 191.654 47.8333 192.115 48.1875 192.469C48.5365 192.818 49.013 192.992 49.6172 192.992C50.1953 192.992 50.6641 192.82 51.0234 192.477C51.3776 192.128 51.5547 191.664 51.5547 191.086C51.5547 190.508 51.3776 190.047 51.0234 189.703C50.6641 189.354 50.1953 189.18 49.6172 189.18C49.0391 189.18 48.5677 189.359 48.2031 189.719C47.8385 190.078 47.6562 190.534 47.6562 191.086ZM53.7578 182.492V186.305H52.5781V182.492H53.7578ZM53.1484 174.094C54.8411 174.094 56.099 174.383 56.9219 174.961C57.7448 175.539 58.1562 176.443 58.1562 177.672C58.1562 178.885 57.7552 179.784 56.9531 180.367C56.1458 180.951 54.9427 181.253 53.3438 181.273H51.4141C49.7422 181.273 48.5 180.984 47.6875 180.406C46.875 179.828 46.4688 178.922 46.4688 177.688C46.4688 176.464 46.862 175.562 47.6484 174.984C48.4297 174.406 49.638 174.109 51.2734 174.094H53.1484ZM51.1719 175.539C49.9479 175.539 49.0573 175.711 48.5 176.055C47.9375 176.398 47.6562 176.943 47.6562 177.688C47.6562 178.427 47.9349 178.966 48.4922 179.305C49.0495 179.643 49.9062 179.818 51.0625 179.828H53.375C54.6042 179.828 55.513 179.651 56.1016 179.297C56.6849 178.938 56.9766 178.396 56.9766 177.672C56.9766 176.958 56.7005 176.43 56.1484 176.086C55.5964 175.737 54.7266 175.555 53.5391 175.539H51.1719ZM47.4375 164.898L58 169.609V171.125L47.8125 166.43V172.586H46.625V164.898H47.4375Z" fill="black"/>
</g>
<g id="Group 7" class="group">
<path id="C8-08" class="room" d="M105.103 221.636H1.57251V296.387H105.103V221.636Z" fill="white" stroke="#B3B3B3"/>
<path id="C8-08_2" class="room-name" d="M54.3906 270.312C55.5938 270.453 56.5234 270.898 57.1797 271.648C57.8307 272.393 58.1562 273.385 58.1562 274.625C58.1562 275.969 57.6745 277.047 56.7109 277.859C55.7474 278.667 54.4583 279.07 52.8438 279.07H51.75C50.6927 279.07 49.763 278.883 48.9609 278.508C48.1589 278.128 47.5443 277.591 47.1172 276.898C46.6849 276.206 46.4688 275.404 46.4688 274.492C46.4688 273.284 46.8073 272.315 47.4844 271.586C48.1562 270.857 49.0885 270.432 50.2812 270.312V271.82C49.375 271.951 48.7188 272.234 48.3125 272.672C47.9062 273.104 47.7031 273.711 47.7031 274.492C47.7031 275.451 48.0573 276.203 48.7656 276.75C49.474 277.292 50.4818 277.562 51.7891 277.562H52.8906C54.125 277.562 55.1068 277.305 55.8359 276.789C56.5651 276.273 56.9297 275.552 56.9297 274.625C56.9297 273.792 56.7422 273.154 56.3672 272.711C55.987 272.263 55.3281 271.966 54.3906 271.82V270.312ZM49.5938 261.734C50.1615 261.734 50.6667 261.885 51.1094 262.188C51.5521 262.484 51.8984 262.888 52.1484 263.398C52.4036 262.805 52.776 262.336 53.2656 261.992C53.7552 261.643 54.3099 261.469 54.9297 261.469C55.9141 261.469 56.6979 261.802 57.2812 262.469C57.8646 263.13 58.1562 264.003 58.1562 265.086C58.1562 266.18 57.8646 267.057 57.2812 267.719C56.6927 268.375 55.9089 268.703 54.9297 268.703C54.3151 268.703 53.7604 268.536 53.2656 268.203C52.7708 267.865 52.3958 267.398 52.1406 266.805C51.8906 267.31 51.5443 267.708 51.1016 268C50.6589 268.292 50.1562 268.438 49.5938 268.438C48.6354 268.438 47.875 268.13 47.3125 267.516C46.75 266.901 46.4688 266.091 46.4688 265.086C46.4688 264.086 46.75 263.279 47.3125 262.664C47.875 262.044 48.6354 261.734 49.5938 261.734ZM54.8984 262.914C54.263 262.914 53.7448 263.117 53.3438 263.523C52.9427 263.924 52.7422 264.451 52.7422 265.102C52.7422 265.753 52.9401 266.276 53.3359 266.672C53.7318 267.062 54.2526 267.258 54.8984 267.258C55.5443 267.258 56.0521 267.068 56.4219 266.688C56.7917 266.302 56.9766 265.768 56.9766 265.086C56.9766 264.409 56.7917 263.878 56.4219 263.492C56.0469 263.107 55.5391 262.914 54.8984 262.914ZM47.6562 265.086C47.6562 265.654 47.8333 266.115 48.1875 266.469C48.5365 266.818 49.013 266.992 49.6172 266.992C50.1953 266.992 50.6641 266.82 51.0234 266.477C51.3776 266.128 51.5547 265.664 51.5547 265.086C51.5547 264.508 51.3776 264.047 51.0234 263.703C50.6641 263.354 50.1953 263.18 49.6172 263.18C49.0391 263.18 48.5677 263.359 48.2031 263.719C47.8385 264.078 47.6562 264.534 47.6562 265.086ZM53.7578 256.492V260.305H52.5781V256.492H53.7578ZM53.1484 248.094C54.8411 248.094 56.099 248.383 56.9219 248.961C57.7448 249.539 58.1562 250.443 58.1562 251.672C58.1562 252.885 57.7552 253.784 56.9531 254.367C56.1458 254.951 54.9427 255.253 53.3438 255.273H51.4141C49.7422 255.273 48.5 254.984 47.6875 254.406C46.875 253.828 46.4688 252.922 46.4688 251.688C46.4688 250.464 46.862 249.562 47.6484 248.984C48.4297 248.406 49.638 248.109 51.2734 248.094H53.1484ZM51.1719 249.539C49.9479 249.539 49.0573 249.711 48.5 250.055C47.9375 250.398 47.6562 250.943 47.6562 251.688C47.6562 252.427 47.9349 252.966 48.4922 253.305C49.0495 253.643 49.9062 253.818 51.0625 253.828H53.375C54.6042 253.828 55.513 253.651 56.1016 253.297C56.6849 252.938 56.9766 252.396 56.9766 251.672C56.9766 250.958 56.7005 250.43 56.1484 250.086C55.5964 249.737 54.7266 249.555 53.5391 249.539H51.1719ZM49.5938 239.344C50.1615 239.344 50.6667 239.495 51.1094 239.797C51.5521 240.094 51.8984 240.497 52.1484 241.008C52.4036 240.414 52.776 239.945 53.2656 239.602C53.7552 239.253 54.3099 239.078 54.9297 239.078C55.9141 239.078 56.6979 239.411 57.2812 240.078C57.8646 240.74 58.1562 241.612 58.1562 242.695C58.1562 243.789 57.8646 244.667 57.2812 245.328C56.6927 245.984 55.9089 246.312 54.9297 246.312C54.3151 246.312 53.7604 246.146 53.2656 245.812C52.7708 245.474 52.3958 245.008 52.1406 244.414C51.8906 244.919 51.5443 245.318 51.1016 245.609C50.6589 245.901 50.1562 246.047 49.5938 246.047C48.6354 246.047 47.875 245.74 47.3125 245.125C46.75 244.51 46.4688 243.701 46.4688 242.695C46.4688 241.695 46.75 240.888 47.3125 240.273C47.875 239.654 48.6354 239.344 49.5938 239.344ZM54.8984 240.523C54.263 240.523 53.7448 240.727 53.3438 241.133C52.9427 241.534 52.7422 242.06 52.7422 242.711C52.7422 243.362 52.9401 243.885 53.3359 244.281C53.7318 244.672 54.2526 244.867 54.8984 244.867C55.5443 244.867 56.0521 244.677 56.4219 244.297C56.7917 243.911 56.9766 243.378 56.9766 242.695C56.9766 242.018 56.7917 241.487 56.4219 241.102C56.0469 240.716 55.5391 240.523 54.8984 240.523ZM47.6562 242.695C47.6562 243.263 47.8333 243.724 48.1875 244.078C48.5365 244.427 49.013 244.602 49.6172 244.602C50.1953 244.602 50.6641 244.43 51.0234 244.086C51.3776 243.737 51.5547 243.273 51.5547 242.695C51.5547 242.117 51.3776 241.656 51.0234 241.312C50.6641 240.964 50.1953 240.789 49.6172 240.789C49.0391 240.789 48.5677 240.969 48.2031 241.328C47.8385 241.688 47.6562 242.143 47.6562 242.695Z" fill="black"/>
</g>
<g id="Group 8" class="group">
<path id="C8-09" class="room" d="M105.103 295.182H1.57251V369.933H105.103V295.182Z" fill="white" stroke="#B3B3B3"/>
<path id="C8-09_2" class="room-name" d="M54.3906 344.312C55.5938 344.453 56.5234 344.898 57.1797 345.648C57.8307 346.393 58.1562 347.385 58.1562 348.625C58.1562 349.969 57.6745 351.047 56.7109 351.859C55.7474 352.667 54.4583 353.07 52.8438 353.07H51.75C50.6927 353.07 49.763 352.883 48.9609 352.508C48.1589 352.128 47.5443 351.591 47.1172 350.898C46.6849 350.206 46.4688 349.404 46.4688 348.492C46.4688 347.284 46.8073 346.315 47.4844 345.586C48.1562 344.857 49.0885 344.432 50.2812 344.312V345.82C49.375 345.951 48.7188 346.234 48.3125 346.672C47.9062 347.104 47.7031 347.711 47.7031 348.492C47.7031 349.451 48.0573 350.203 48.7656 350.75C49.474 351.292 50.4818 351.562 51.7891 351.562H52.8906C54.125 351.562 55.1068 351.305 55.8359 350.789C56.5651 350.273 56.9297 349.552 56.9297 348.625C56.9297 347.792 56.7422 347.154 56.3672 346.711C55.987 346.263 55.3281 345.966 54.3906 345.82V344.312ZM49.5938 335.734C50.1615 335.734 50.6667 335.885 51.1094 336.188C51.5521 336.484 51.8984 336.888 52.1484 337.398C52.4036 336.805 52.776 336.336 53.2656 335.992C53.7552 335.643 54.3099 335.469 54.9297 335.469C55.9141 335.469 56.6979 335.802 57.2812 336.469C57.8646 337.13 58.1562 338.003 58.1562 339.086C58.1562 340.18 57.8646 341.057 57.2812 341.719C56.6927 342.375 55.9089 342.703 54.9297 342.703C54.3151 342.703 53.7604 342.536 53.2656 342.203C52.7708 341.865 52.3958 341.398 52.1406 340.805C51.8906 341.31 51.5443 341.708 51.1016 342C50.6589 342.292 50.1562 342.438 49.5938 342.438C48.6354 342.438 47.875 342.13 47.3125 341.516C46.75 340.901 46.4688 340.091 46.4688 339.086C46.4688 338.086 46.75 337.279 47.3125 336.664C47.875 336.044 48.6354 335.734 49.5938 335.734ZM54.8984 336.914C54.263 336.914 53.7448 337.117 53.3438 337.523C52.9427 337.924 52.7422 338.451 52.7422 339.102C52.7422 339.753 52.9401 340.276 53.3359 340.672C53.7318 341.062 54.2526 341.258 54.8984 341.258C55.5443 341.258 56.0521 341.068 56.4219 340.688C56.7917 340.302 56.9766 339.768 56.9766 339.086C56.9766 338.409 56.7917 337.878 56.4219 337.492C56.0469 337.107 55.5391 336.914 54.8984 336.914ZM47.6562 339.086C47.6562 339.654 47.8333 340.115 48.1875 340.469C48.5365 340.818 49.013 340.992 49.6172 340.992C50.1953 340.992 50.6641 340.82 51.0234 340.477C51.3776 340.128 51.5547 339.664 51.5547 339.086C51.5547 338.508 51.3776 338.047 51.0234 337.703C50.6641 337.354 50.1953 337.18 49.6172 337.18C49.0391 337.18 48.5677 337.359 48.2031 337.719C47.8385 338.078 47.6562 338.534 47.6562 339.086ZM53.7578 330.492V334.305H52.5781V330.492H53.7578ZM53.1484 322.094C54.8411 322.094 56.099 322.383 56.9219 322.961C57.7448 323.539 58.1562 324.443 58.1562 325.672C58.1562 326.885 57.7552 327.784 56.9531 328.367C56.1458 328.951 54.9427 329.253 53.3438 329.273H51.4141C49.7422 329.273 48.5 328.984 47.6875 328.406C46.875 327.828 46.4688 326.922 46.4688 325.688C46.4688 324.464 46.862 323.562 47.6484 322.984C48.4297 322.406 49.638 322.109 51.2734 322.094H53.1484ZM51.1719 323.539C49.9479 323.539 49.0573 323.711 48.5 324.055C47.9375 324.398 47.6562 324.943 47.6562 325.688C47.6562 326.427 47.9349 326.966 48.4922 327.305C49.0495 327.643 49.9062 327.818 51.0625 327.828H53.375C54.6042 327.828 55.513 327.651 56.1016 327.297C56.6849 326.938 56.9766 326.396 56.9766 325.672C56.9766 324.958 56.7005 324.43 56.1484 324.086C55.5964 323.737 54.7266 323.555 53.5391 323.539H51.1719ZM53 314.703C53.3594 315.005 53.6484 315.367 53.8672 315.789C54.0859 316.206 54.1953 316.664 54.1953 317.164C54.1953 317.82 54.0339 318.393 53.7109 318.883C53.388 319.367 52.9349 319.742 52.3516 320.008C51.763 320.273 51.1146 320.406 50.4062 320.406C49.6458 320.406 48.9609 320.263 48.3516 319.977C47.7422 319.685 47.276 319.273 46.9531 318.742C46.6302 318.211 46.4688 317.591 46.4688 316.883C46.4688 315.758 46.8906 314.872 47.7344 314.227C48.5729 313.576 49.7188 313.25 51.1719 313.25H51.5938C53.8073 313.25 55.4245 313.688 56.4453 314.562C57.4609 315.438 57.9818 316.758 58.0078 318.523V318.805H56.7891V318.5C56.7682 317.307 56.4583 316.391 55.8594 315.75C55.2552 315.109 54.3021 314.76 53 314.703ZM53 316.93C53 316.445 52.8516 316 52.5547 315.594C52.2578 315.182 51.8906 314.883 51.4531 314.695H50.875C49.9271 314.695 49.1562 314.901 48.5625 315.312C47.9688 315.724 47.6719 316.245 47.6719 316.875C47.6719 317.51 47.9167 318.021 48.4062 318.406C48.8906 318.792 49.5312 318.984 50.3281 318.984C51.1042 318.984 51.7448 318.799 52.25 318.43C52.75 318.055 53 317.555 53 316.93Z" fill="black"/>
</g>
<g id="Group 9" class="group">
<path id="C8-10" class="room" d="M105.103 368.729H1.57251V443.481H105.103V368.729Z" fill="white" stroke="#B3B3B3"/>
<path id="C8-10_2" class="room-name" d="M54.3906 417.312C55.5938 417.453 56.5234 417.898 57.1797 418.648C57.8307 419.393 58.1562 420.385 58.1562 421.625C58.1562 422.969 57.6745 424.047 56.7109 424.859C55.7474 425.667 54.4583 426.07 52.8438 426.07H51.75C50.6927 426.07 49.763 425.883 48.9609 425.508C48.1589 425.128 47.5443 424.591 47.1172 423.898C46.6849 423.206 46.4688 422.404 46.4688 421.492C46.4688 420.284 46.8073 419.315 47.4844 418.586C48.1562 417.857 49.0885 417.432 50.2812 417.312V418.82C49.375 418.951 48.7188 419.234 48.3125 419.672C47.9062 420.104 47.7031 420.711 47.7031 421.492C47.7031 422.451 48.0573 423.203 48.7656 423.75C49.474 424.292 50.4818 424.562 51.7891 424.562H52.8906C54.125 424.562 55.1068 424.305 55.8359 423.789C56.5651 423.273 56.9297 422.552 56.9297 421.625C56.9297 420.792 56.7422 420.154 56.3672 419.711C55.987 419.263 55.3281 418.966 54.3906 418.82V417.312ZM49.5938 408.734C50.1615 408.734 50.6667 408.885 51.1094 409.188C51.5521 409.484 51.8984 409.888 52.1484 410.398C52.4036 409.805 52.776 409.336 53.2656 408.992C53.7552 408.643 54.3099 408.469 54.9297 408.469C55.9141 408.469 56.6979 408.802 57.2812 409.469C57.8646 410.13 58.1562 411.003 58.1562 412.086C58.1562 413.18 57.8646 414.057 57.2812 414.719C56.6927 415.375 55.9089 415.703 54.9297 415.703C54.3151 415.703 53.7604 415.536 53.2656 415.203C52.7708 414.865 52.3958 414.398 52.1406 413.805C51.8906 414.31 51.5443 414.708 51.1016 415C50.6589 415.292 50.1562 415.438 49.5938 415.438C48.6354 415.438 47.875 415.13 47.3125 414.516C46.75 413.901 46.4688 413.091 46.4688 412.086C46.4688 411.086 46.75 410.279 47.3125 409.664C47.875 409.044 48.6354 408.734 49.5938 408.734ZM54.8984 409.914C54.263 409.914 53.7448 410.117 53.3438 410.523C52.9427 410.924 52.7422 411.451 52.7422 412.102C52.7422 412.753 52.9401 413.276 53.3359 413.672C53.7318 414.062 54.2526 414.258 54.8984 414.258C55.5443 414.258 56.0521 414.068 56.4219 413.688C56.7917 413.302 56.9766 412.768 56.9766 412.086C56.9766 411.409 56.7917 410.878 56.4219 410.492C56.0469 410.107 55.5391 409.914 54.8984 409.914ZM47.6562 412.086C47.6562 412.654 47.8333 413.115 48.1875 413.469C48.5365 413.818 49.013 413.992 49.6172 413.992C50.1953 413.992 50.6641 413.82 51.0234 413.477C51.3776 413.128 51.5547 412.664 51.5547 412.086C51.5547 411.508 51.3776 411.047 51.0234 410.703C50.6641 410.354 50.1953 410.18 49.6172 410.18C49.0391 410.18 48.5677 410.359 48.2031 410.719C47.8385 411.078 47.6562 411.534 47.6562 412.086ZM53.7578 403.492V407.305H52.5781V403.492H53.7578ZM58 397.477V398.93H48.3672L49.4375 401.844H48.125L46.5703 397.703V397.477H58ZM53.1484 386.109C54.8411 386.109 56.099 386.398 56.9219 386.977C57.7448 387.555 58.1562 388.458 58.1562 389.688C58.1562 390.901 57.7552 391.799 56.9531 392.383C56.1458 392.966 54.9427 393.268 53.3438 393.289H51.4141C49.7422 393.289 48.5 393 47.6875 392.422C46.875 391.844 46.4688 390.938 46.4688 389.703C46.4688 388.479 46.862 387.578 47.6484 387C48.4297 386.422 49.638 386.125 51.2734 386.109H53.1484ZM51.1719 387.555C49.9479 387.555 49.0573 387.727 48.5 388.07C47.9375 388.414 47.6562 388.958 47.6562 389.703C47.6562 390.443 47.9349 390.982 48.4922 391.32C49.0495 391.659 49.9062 391.833 51.0625 391.844H53.375C54.6042 391.844 55.513 391.667 56.1016 391.312C56.6849 390.953 56.9766 390.411 56.9766 389.688C56.9766 388.974 56.7005 388.445 56.1484 388.102C55.5964 387.753 54.7266 387.57 53.5391 387.555H51.1719Z" fill="black"/>
</g>
<g id="Group 10" class="group">
<path id="C8-12" class="room" d="M105.103 550.996H1.57251V625.748H105.103V550.996Z" fill="white" stroke="#B3B3B3"/>
<path id="C8-12_2" class="room-name" d="M54.3906 599.312C55.5938 599.453 56.5234 599.898 57.1797 600.648C57.8307 601.393 58.1562 602.385 58.1562 603.625C58.1562 604.969 57.6745 606.047 56.7109 606.859C55.7474 607.667 54.4583 608.07 52.8438 608.07H51.75C50.6927 608.07 49.763 607.883 48.9609 607.508C48.1589 607.128 47.5443 606.591 47.1172 605.898C46.6849 605.206 46.4688 604.404 46.4688 603.492C46.4688 602.284 46.8073 601.315 47.4844 600.586C48.1562 599.857 49.0885 599.432 50.2812 599.312V600.82C49.375 600.951 48.7188 601.234 48.3125 601.672C47.9062 602.104 47.7031 602.711 47.7031 603.492C47.7031 604.451 48.0573 605.203 48.7656 605.75C49.474 606.292 50.4818 606.562 51.7891 606.562H52.8906C54.125 606.562 55.1068 606.305 55.8359 605.789C56.5651 605.273 56.9297 604.552 56.9297 603.625C56.9297 602.792 56.7422 602.154 56.3672 601.711C55.987 601.263 55.3281 600.966 54.3906 600.82V599.312ZM49.5938 590.734C50.1615 590.734 50.6667 590.885 51.1094 591.188C51.5521 591.484 51.8984 591.888 52.1484 592.398C52.4036 591.805 52.776 591.336 53.2656 590.992C53.7552 590.643 54.3099 590.469 54.9297 590.469C55.9141 590.469 56.6979 590.802 57.2812 591.469C57.8646 592.13 58.1562 593.003 58.1562 594.086C58.1562 595.18 57.8646 596.057 57.2812 596.719C56.6927 597.375 55.9089 597.703 54.9297 597.703C54.3151 597.703 53.7604 597.536 53.2656 597.203C52.7708 596.865 52.3958 596.398 52.1406 595.805C51.8906 596.31 51.5443 596.708 51.1016 597C50.6589 597.292 50.1562 597.438 49.5938 597.438C48.6354 597.438 47.875 597.13 47.3125 596.516C46.75 595.901 46.4688 595.091 46.4688 594.086C46.4688 593.086 46.75 592.279 47.3125 591.664C47.875 591.044 48.6354 590.734 49.5938 590.734ZM54.8984 591.914C54.263 591.914 53.7448 592.117 53.3438 592.523C52.9427 592.924 52.7422 593.451 52.7422 594.102C52.7422 594.753 52.9401 595.276 53.3359 595.672C53.7318 596.062 54.2526 596.258 54.8984 596.258C55.5443 596.258 56.0521 596.068 56.4219 595.688C56.7917 595.302 56.9766 594.768 56.9766 594.086C56.9766 593.409 56.7917 592.878 56.4219 592.492C56.0469 592.107 55.5391 591.914 54.8984 591.914ZM47.6562 594.086C47.6562 594.654 47.8333 595.115 48.1875 595.469C48.5365 595.818 49.013 595.992 49.6172 595.992C50.1953 595.992 50.6641 595.82 51.0234 595.477C51.3776 595.128 51.5547 594.664 51.5547 594.086C51.5547 593.508 51.3776 593.047 51.0234 592.703C50.6641 592.354 50.1953 592.18 49.6172 592.18C49.0391 592.18 48.5677 592.359 48.2031 592.719C47.8385 593.078 47.6562 593.534 47.6562 594.086ZM53.7578 585.492V589.305H52.5781V585.492H53.7578ZM58 579.477V580.93H48.3672L49.4375 583.844H48.125L46.5703 579.703V579.477H58ZM58 567.789V575.242H56.9609L52.5859 571.305C51.9245 570.721 51.388 570.32 50.9766 570.102C50.5599 569.878 50.1302 569.766 49.6875 569.766C49.0938 569.766 48.6068 569.945 48.2266 570.305C47.8464 570.664 47.6562 571.143 47.6562 571.742C47.6562 572.461 47.862 573.021 48.2734 573.422C48.6797 573.818 49.2474 574.016 49.9766 574.016V575.461C48.9297 575.461 48.0833 575.125 47.4375 574.453C46.7917 573.776 46.4688 572.872 46.4688 571.742C46.4688 570.685 46.7474 569.849 47.3047 569.234C47.8568 568.62 48.5938 568.312 49.5156 568.312C50.6354 568.312 51.9688 569.026 53.5156 570.453L56.8203 573.5V567.789H58Z" fill="black"/>
</g>
<g id="Group 11" class="group">
<path id="C8-15" class="room" d="M105.103 877.159H1.57251V951.91H105.103V877.159Z" fill="white" stroke="#B3B3B3"/>
<path id="C8-15_2" class="room-name" d="M54.3906 926.312C55.5938 926.453 56.5234 926.898 57.1797 927.648C57.8307 928.393 58.1562 929.385 58.1562 930.625C58.1562 931.969 57.6745 933.047 56.7109 933.859C55.7474 934.667 54.4583 935.07 52.8438 935.07H51.75C50.6927 935.07 49.763 934.883 48.9609 934.508C48.1589 934.128 47.5443 933.591 47.1172 932.898C46.6849 932.206 46.4688 931.404 46.4688 930.492C46.4688 929.284 46.8073 928.315 47.4844 927.586C48.1562 926.857 49.0885 926.432 50.2812 926.312V927.82C49.375 927.951 48.7188 928.234 48.3125 928.672C47.9062 929.104 47.7031 929.711 47.7031 930.492C47.7031 931.451 48.0573 932.203 48.7656 932.75C49.474 933.292 50.4818 933.562 51.7891 933.562H52.8906C54.125 933.562 55.1068 933.305 55.8359 932.789C56.5651 932.273 56.9297 931.552 56.9297 930.625C56.9297 929.792 56.7422 929.154 56.3672 928.711C55.987 928.263 55.3281 927.966 54.3906 927.82V926.312ZM49.5938 917.734C50.1615 917.734 50.6667 917.885 51.1094 918.188C51.5521 918.484 51.8984 918.888 52.1484 919.398C52.4036 918.805 52.776 918.336 53.2656 917.992C53.7552 917.643 54.3099 917.469 54.9297 917.469C55.9141 917.469 56.6979 917.802 57.2812 918.469C57.8646 919.13 58.1562 920.003 58.1562 921.086C58.1562 922.18 57.8646 923.057 57.2812 923.719C56.6927 924.375 55.9089 924.703 54.9297 924.703C54.3151 924.703 53.7604 924.536 53.2656 924.203C52.7708 923.865 52.3958 923.398 52.1406 922.805C51.8906 923.31 51.5443 923.708 51.1016 924C50.6589 924.292 50.1562 924.438 49.5938 924.438C48.6354 924.438 47.875 924.13 47.3125 923.516C46.75 922.901 46.4688 922.091 46.4688 921.086C46.4688 920.086 46.75 919.279 47.3125 918.664C47.875 918.044 48.6354 917.734 49.5938 917.734ZM54.8984 918.914C54.263 918.914 53.7448 919.117 53.3438 919.523C52.9427 919.924 52.7422 920.451 52.7422 921.102C52.7422 921.753 52.9401 922.276 53.3359 922.672C53.7318 923.062 54.2526 923.258 54.8984 923.258C55.5443 923.258 56.0521 923.068 56.4219 922.688C56.7917 922.302 56.9766 921.768 56.9766 921.086C56.9766 920.409 56.7917 919.878 56.4219 919.492C56.0469 919.107 55.5391 918.914 54.8984 918.914ZM47.6562 921.086C47.6562 921.654 47.8333 922.115 48.1875 922.469C48.5365 922.818 49.013 922.992 49.6172 922.992C50.1953 922.992 50.6641 922.82 51.0234 922.477C51.3776 922.128 51.5547 921.664 51.5547 921.086C51.5547 920.508 51.3776 920.047 51.0234 919.703C50.6641 919.354 50.1953 919.18 49.6172 919.18C49.0391 919.18 48.5677 919.359 48.2031 919.719C47.8385 920.078 47.6562 920.534 47.6562 921.086ZM53.7578 912.492V916.305H52.5781V912.492H53.7578ZM58 906.477V907.93H48.3672L49.4375 910.844H48.125L46.5703 906.703V906.477H58ZM52.2969 901.578L46.625 901V895.172H47.9609V899.773L51.0625 900.117C50.7344 899.56 50.5703 898.927 50.5703 898.219C50.5703 897.182 50.9141 896.359 51.6016 895.75C52.2839 895.141 53.2083 894.836 54.375 894.836C55.5469 894.836 56.4714 895.154 57.1484 895.789C57.8203 896.419 58.1562 897.302 58.1562 898.438C58.1562 899.443 57.8776 900.263 57.3203 900.898C56.763 901.534 55.9922 901.896 55.0078 901.984V900.617C55.6589 900.529 56.151 900.297 56.4844 899.922C56.8125 899.547 56.9766 899.052 56.9766 898.438C56.9766 897.766 56.7474 897.24 56.2891 896.859C55.8307 896.474 55.1979 896.281 54.3906 896.281C53.6302 896.281 53.0208 896.49 52.5625 896.906C52.099 897.318 51.8672 897.867 51.8672 898.555C51.8672 899.185 52.0052 899.68 52.2812 900.039L52.5938 900.422L52.2969 901.578Z" fill="black"/>
</g>
<g id="Group 12" class="group">
<path id="C8-16" class="room" d="M105.103 950.705H1.57251V1025.46H105.103V950.705Z" fill="white" stroke="#B3B3B3"/>
<path id="C8-16_2" class="room-name" d="M54.3906 999.312C55.5938 999.453 56.5234 999.898 57.1797 1000.65C57.8307 1001.39 58.1562 1002.39 58.1562 1003.62C58.1562 1004.97 57.6745 1006.05 56.7109 1006.86C55.7474 1007.67 54.4583 1008.07 52.8438 1008.07H51.75C50.6927 1008.07 49.763 1007.88 48.9609 1007.51C48.1589 1007.13 47.5443 1006.59 47.1172 1005.9C46.6849 1005.21 46.4688 1004.4 46.4688 1003.49C46.4688 1002.28 46.8073 1001.32 47.4844 1000.59C48.1562 999.857 49.0885 999.432 50.2812 999.312V1000.82C49.375 1000.95 48.7188 1001.23 48.3125 1001.67C47.9062 1002.1 47.7031 1002.71 47.7031 1003.49C47.7031 1004.45 48.0573 1005.2 48.7656 1005.75C49.474 1006.29 50.4818 1006.56 51.7891 1006.56H52.8906C54.125 1006.56 55.1068 1006.3 55.8359 1005.79C56.5651 1005.27 56.9297 1004.55 56.9297 1003.62C56.9297 1002.79 56.7422 1002.15 56.3672 1001.71C55.987 1001.26 55.3281 1000.97 54.3906 1000.82V999.312ZM49.5938 990.734C50.1615 990.734 50.6667 990.885 51.1094 991.188C51.5521 991.484 51.8984 991.888 52.1484 992.398C52.4036 991.805 52.776 991.336 53.2656 990.992C53.7552 990.643 54.3099 990.469 54.9297 990.469C55.9141 990.469 56.6979 990.802 57.2812 991.469C57.8646 992.13 58.1562 993.003 58.1562 994.086C58.1562 995.18 57.8646 996.057 57.2812 996.719C56.6927 997.375 55.9089 997.703 54.9297 997.703C54.3151 997.703 53.7604 997.536 53.2656 997.203C52.7708 996.865 52.3958 996.398 52.1406 995.805C51.8906 996.31 51.5443 996.708 51.1016 997C50.6589 997.292 50.1562 997.438 49.5938 997.438C48.6354 997.438 47.875 997.13 47.3125 996.516C46.75 995.901 46.4688 995.091 46.4688 994.086C46.4688 993.086 46.75 992.279 47.3125 991.664C47.875 991.044 48.6354 990.734 49.5938 990.734ZM54.8984 991.914C54.263 991.914 53.7448 992.117 53.3438 992.523C52.9427 992.924 52.7422 993.451 52.7422 994.102C52.7422 994.753 52.9401 995.276 53.3359 995.672C53.7318 996.062 54.2526 996.258 54.8984 996.258C55.5443 996.258 56.0521 996.068 56.4219 995.688C56.7917 995.302 56.9766 994.768 56.9766 994.086C56.9766 993.409 56.7917 992.878 56.4219 992.492C56.0469 992.107 55.5391 991.914 54.8984 991.914ZM47.6562 994.086C47.6562 994.654 47.8333 995.115 48.1875 995.469C48.5365 995.818 49.013 995.992 49.6172 995.992C50.1953 995.992 50.6641 995.82 51.0234 995.477C51.3776 995.128 51.5547 994.664 51.5547 994.086C51.5547 993.508 51.3776 993.047 51.0234 992.703C50.6641 992.354 50.1953 992.18 49.6172 992.18C49.0391 992.18 48.5677 992.359 48.2031 992.719C47.8385 993.078 47.6562 993.534 47.6562 994.086ZM53.7578 985.492V989.305H52.5781V985.492H53.7578ZM58 979.477V980.93H48.3672L49.4375 983.844H48.125L46.5703 979.703V979.477H58ZM46.6172 969.57H47.8438V969.836C47.8646 970.961 48.1979 971.857 48.8438 972.523C49.4896 973.19 50.3984 973.576 51.5703 973.68C50.8828 973.081 50.5391 972.263 50.5391 971.227C50.5391 970.237 50.888 969.448 51.5859 968.859C52.2839 968.266 53.1849 967.969 54.2891 967.969C55.4609 967.969 56.3984 968.289 57.1016 968.93C57.8047 969.565 58.1562 970.419 58.1562 971.492C58.1562 972.581 57.7396 973.464 56.9062 974.141C56.0677 974.818 54.9896 975.156 53.6719 975.156H53.1172C51.0234 975.156 49.4245 974.711 48.3203 973.82C47.2109 972.924 46.6432 971.594 46.6172 969.828V969.57ZM51.7422 971.469C51.7422 971.964 51.8906 972.419 52.1875 972.836C52.4844 973.253 52.8568 973.542 53.3047 973.703H53.8359C54.7734 973.703 55.5286 973.492 56.1016 973.07C56.6745 972.648 56.9609 972.122 56.9609 971.492C56.9609 970.841 56.7214 970.331 56.2422 969.961C55.763 969.586 55.1354 969.398 54.3594 969.398C53.5781 969.398 52.9479 969.589 52.4688 969.969C51.9844 970.344 51.7422 970.844 51.7422 971.469Z" fill="black"/>
</g>
<g id="Group 13" class="group">
<path id="C8-17" class="room" d="M105.103 1024.25H1.57251V1099H105.103V1024.25Z" fill="white" stroke="#B3B3B3"/>
<path id="C8-17_2" class="room-name" d="M54.3906 1073.31C55.5938 1073.45 56.5234 1073.9 57.1797 1074.65C57.8307 1075.39 58.1562 1076.39 58.1562 1077.62C58.1562 1078.97 57.6745 1080.05 56.7109 1080.86C55.7474 1081.67 54.4583 1082.07 52.8438 1082.07H51.75C50.6927 1082.07 49.763 1081.88 48.9609 1081.51C48.1589 1081.13 47.5443 1080.59 47.1172 1079.9C46.6849 1079.21 46.4688 1078.4 46.4688 1077.49C46.4688 1076.28 46.8073 1075.32 47.4844 1074.59C48.1562 1073.86 49.0885 1073.43 50.2812 1073.31V1074.82C49.375 1074.95 48.7188 1075.23 48.3125 1075.67C47.9062 1076.1 47.7031 1076.71 47.7031 1077.49C47.7031 1078.45 48.0573 1079.2 48.7656 1079.75C49.474 1080.29 50.4818 1080.56 51.7891 1080.56H52.8906C54.125 1080.56 55.1068 1080.3 55.8359 1079.79C56.5651 1079.27 56.9297 1078.55 56.9297 1077.62C56.9297 1076.79 56.7422 1076.15 56.3672 1075.71C55.987 1075.26 55.3281 1074.97 54.3906 1074.82V1073.31ZM49.5938 1064.73C50.1615 1064.73 50.6667 1064.89 51.1094 1065.19C51.5521 1065.48 51.8984 1065.89 52.1484 1066.4C52.4036 1065.8 52.776 1065.34 53.2656 1064.99C53.7552 1064.64 54.3099 1064.47 54.9297 1064.47C55.9141 1064.47 56.6979 1064.8 57.2812 1065.47C57.8646 1066.13 58.1562 1067 58.1562 1068.09C58.1562 1069.18 57.8646 1070.06 57.2812 1070.72C56.6927 1071.38 55.9089 1071.7 54.9297 1071.7C54.3151 1071.7 53.7604 1071.54 53.2656 1071.2C52.7708 1070.86 52.3958 1070.4 52.1406 1069.8C51.8906 1070.31 51.5443 1070.71 51.1016 1071C50.6589 1071.29 50.1562 1071.44 49.5938 1071.44C48.6354 1071.44 47.875 1071.13 47.3125 1070.52C46.75 1069.9 46.4688 1069.09 46.4688 1068.09C46.4688 1067.09 46.75 1066.28 47.3125 1065.66C47.875 1065.04 48.6354 1064.73 49.5938 1064.73ZM54.8984 1065.91C54.263 1065.91 53.7448 1066.12 53.3438 1066.52C52.9427 1066.92 52.7422 1067.45 52.7422 1068.1C52.7422 1068.75 52.9401 1069.28 53.3359 1069.67C53.7318 1070.06 54.2526 1070.26 54.8984 1070.26C55.5443 1070.26 56.0521 1070.07 56.4219 1069.69C56.7917 1069.3 56.9766 1068.77 56.9766 1068.09C56.9766 1067.41 56.7917 1066.88 56.4219 1066.49C56.0469 1066.11 55.5391 1065.91 54.8984 1065.91ZM47.6562 1068.09C47.6562 1068.65 47.8333 1069.11 48.1875 1069.47C48.5365 1069.82 49.013 1069.99 49.6172 1069.99C50.1953 1069.99 50.6641 1069.82 51.0234 1069.48C51.3776 1069.13 51.5547 1068.66 51.5547 1068.09C51.5547 1067.51 51.3776 1067.05 51.0234 1066.7C50.6641 1066.35 50.1953 1066.18 49.6172 1066.18C49.0391 1066.18 48.5677 1066.36 48.2031 1066.72C47.8385 1067.08 47.6562 1067.53 47.6562 1068.09ZM53.7578 1059.49V1063.3H52.5781V1059.49H53.7578ZM58 1053.48V1054.93H48.3672L49.4375 1057.84H48.125L46.5703 1053.7V1053.48H58ZM47.4375 1041.9L58 1046.61V1048.12L47.8125 1043.43V1049.59H46.625V1041.9H47.4375Z" fill="black"/>
</g>
<g id="Group 14" class="group">
<path id="C8-11" class="room" d="M105.103 442.276H1.57251V552.201H105.103V442.276Z" fill="white" stroke="#B3B3B3"/>
<path id="C8-11_2" class="room-name" d="M54.3906 508.312C55.5938 508.453 56.5234 508.898 57.1797 509.648C57.8307 510.393 58.1562 511.385 58.1562 512.625C58.1562 513.969 57.6745 515.047 56.7109 515.859C55.7474 516.667 54.4583 517.07 52.8438 517.07H51.75C50.6927 517.07 49.763 516.883 48.9609 516.508C48.1589 516.128 47.5443 515.591 47.1172 514.898C46.6849 514.206 46.4688 513.404 46.4688 512.492C46.4688 511.284 46.8073 510.315 47.4844 509.586C48.1562 508.857 49.0885 508.432 50.2812 508.312V509.82C49.375 509.951 48.7188 510.234 48.3125 510.672C47.9062 511.104 47.7031 511.711 47.7031 512.492C47.7031 513.451 48.0573 514.203 48.7656 514.75C49.474 515.292 50.4818 515.562 51.7891 515.562H52.8906C54.125 515.562 55.1068 515.305 55.8359 514.789C56.5651 514.273 56.9297 513.552 56.9297 512.625C56.9297 511.792 56.7422 511.154 56.3672 510.711C55.987 510.263 55.3281 509.966 54.3906 509.82V508.312ZM49.5938 499.734C50.1615 499.734 50.6667 499.885 51.1094 500.188C51.5521 500.484 51.8984 500.888 52.1484 501.398C52.4036 500.805 52.776 500.336 53.2656 499.992C53.7552 499.643 54.3099 499.469 54.9297 499.469C55.9141 499.469 56.6979 499.802 57.2812 500.469C57.8646 501.13 58.1562 502.003 58.1562 503.086C58.1562 504.18 57.8646 505.057 57.2812 505.719C56.6927 506.375 55.9089 506.703 54.9297 506.703C54.3151 506.703 53.7604 506.536 53.2656 506.203C52.7708 505.865 52.3958 505.398 52.1406 504.805C51.8906 505.31 51.5443 505.708 51.1016 506C50.6589 506.292 50.1562 506.438 49.5938 506.438C48.6354 506.438 47.875 506.13 47.3125 505.516C46.75 504.901 46.4688 504.091 46.4688 503.086C46.4688 502.086 46.75 501.279 47.3125 500.664C47.875 500.044 48.6354 499.734 49.5938 499.734ZM54.8984 500.914C54.263 500.914 53.7448 501.117 53.3438 501.523C52.9427 501.924 52.7422 502.451 52.7422 503.102C52.7422 503.753 52.9401 504.276 53.3359 504.672C53.7318 505.062 54.2526 505.258 54.8984 505.258C55.5443 505.258 56.0521 505.068 56.4219 504.688C56.7917 504.302 56.9766 503.768 56.9766 503.086C56.9766 502.409 56.7917 501.878 56.4219 501.492C56.0469 501.107 55.5391 500.914 54.8984 500.914ZM47.6562 503.086C47.6562 503.654 47.8333 504.115 48.1875 504.469C48.5365 504.818 49.013 504.992 49.6172 504.992C50.1953 504.992 50.6641 504.82 51.0234 504.477C51.3776 504.128 51.5547 503.664 51.5547 503.086C51.5547 502.508 51.3776 502.047 51.0234 501.703C50.6641 501.354 50.1953 501.18 49.6172 501.18C49.0391 501.18 48.5677 501.359 48.2031 501.719C47.8385 502.078 47.6562 502.534 47.6562 503.086ZM53.7578 494.492V498.305H52.5781V494.492H53.7578ZM58 488.477V489.93H48.3672L49.4375 492.844H48.125L46.5703 488.703V488.477H58ZM58 479.492V480.945H48.3672L49.4375 483.859H48.125L46.5703 479.719V479.492H58Z" fill="black"/>
</g>
<g id="Group 15" class="group">
<path id="C8-13" class="room" d="M105.103 624.543H1.57251V734.469H105.103V624.543Z" fill="white" stroke="#B3B3B3"/>
<path id="C8-13_2" class="room-name" d="M54.3906 691.312C55.5938 691.453 56.5234 691.898 57.1797 692.648C57.8307 693.393 58.1562 694.385 58.1562 695.625C58.1562 696.969 57.6745 698.047 56.7109 698.859C55.7474 699.667 54.4583 700.07 52.8438 700.07H51.75C50.6927 700.07 49.763 699.883 48.9609 699.508C48.1589 699.128 47.5443 698.591 47.1172 697.898C46.6849 697.206 46.4688 696.404 46.4688 695.492C46.4688 694.284 46.8073 693.315 47.4844 692.586C48.1562 691.857 49.0885 691.432 50.2812 691.312V692.82C49.375 692.951 48.7188 693.234 48.3125 693.672C47.9062 694.104 47.7031 694.711 47.7031 695.492C47.7031 696.451 48.0573 697.203 48.7656 697.75C49.474 698.292 50.4818 698.562 51.7891 698.562H52.8906C54.125 698.562 55.1068 698.305 55.8359 697.789C56.5651 697.273 56.9297 696.552 56.9297 695.625C56.9297 694.792 56.7422 694.154 56.3672 693.711C55.987 693.263 55.3281 692.966 54.3906 692.82V691.312ZM49.5938 682.734C50.1615 682.734 50.6667 682.885 51.1094 683.188C51.5521 683.484 51.8984 683.888 52.1484 684.398C52.4036 683.805 52.776 683.336 53.2656 682.992C53.7552 682.643 54.3099 682.469 54.9297 682.469C55.9141 682.469 56.6979 682.802 57.2812 683.469C57.8646 684.13 58.1562 685.003 58.1562 686.086C58.1562 687.18 57.8646 688.057 57.2812 688.719C56.6927 689.375 55.9089 689.703 54.9297 689.703C54.3151 689.703 53.7604 689.536 53.2656 689.203C52.7708 688.865 52.3958 688.398 52.1406 687.805C51.8906 688.31 51.5443 688.708 51.1016 689C50.6589 689.292 50.1562 689.438 49.5938 689.438C48.6354 689.438 47.875 689.13 47.3125 688.516C46.75 687.901 46.4688 687.091 46.4688 686.086C46.4688 685.086 46.75 684.279 47.3125 683.664C47.875 683.044 48.6354 682.734 49.5938 682.734ZM54.8984 683.914C54.263 683.914 53.7448 684.117 53.3438 684.523C52.9427 684.924 52.7422 685.451 52.7422 686.102C52.7422 686.753 52.9401 687.276 53.3359 687.672C53.7318 688.062 54.2526 688.258 54.8984 688.258C55.5443 688.258 56.0521 688.068 56.4219 687.688C56.7917 687.302 56.9766 686.768 56.9766 686.086C56.9766 685.409 56.7917 684.878 56.4219 684.492C56.0469 684.107 55.5391 683.914 54.8984 683.914ZM47.6562 686.086C47.6562 686.654 47.8333 687.115 48.1875 687.469C48.5365 687.818 49.013 687.992 49.6172 687.992C50.1953 687.992 50.6641 687.82 51.0234 687.477C51.3776 687.128 51.5547 686.664 51.5547 686.086C51.5547 685.508 51.3776 685.047 51.0234 684.703C50.6641 684.354 50.1953 684.18 49.6172 684.18C49.0391 684.18 48.5677 684.359 48.2031 684.719C47.8385 685.078 47.6562 685.534 47.6562 686.086ZM53.7578 677.492V681.305H52.5781V677.492H53.7578ZM58 671.477V672.93H48.3672L49.4375 675.844H48.125L46.5703 671.703V671.477H58ZM51.6094 665.141V664.055C51.599 663.372 51.4193 662.836 51.0703 662.445C50.7214 662.055 50.25 661.859 49.6562 661.859C48.3229 661.859 47.6562 662.523 47.6562 663.852C47.6562 664.477 47.8359 664.977 48.1953 665.352C48.5495 665.721 49.0208 665.906 49.6094 665.906V667.352C48.7083 667.352 47.9609 667.023 47.3672 666.367C46.7682 665.706 46.4688 664.867 46.4688 663.852C46.4688 662.779 46.7526 661.938 47.3203 661.328C47.888 660.719 48.6771 660.414 49.6875 660.414C50.1823 660.414 50.6615 660.576 51.125 660.898C51.5885 661.216 51.9349 661.651 52.1641 662.203C52.362 661.578 52.6901 661.096 53.1484 660.758C53.6068 660.414 54.1667 660.242 54.8281 660.242C55.849 660.242 56.6589 660.576 57.2578 661.242C57.8568 661.909 58.1562 662.776 58.1562 663.844C58.1562 664.911 57.8672 665.781 57.2891 666.453C56.7109 667.12 55.9479 667.453 55 667.453V666C55.599 666 56.0781 665.805 56.4375 665.414C56.7969 665.023 56.9766 664.5 56.9766 663.844C56.9766 663.146 56.7943 662.612 56.4297 662.242C56.0651 661.872 55.5417 661.688 54.8594 661.688C54.1979 661.688 53.6901 661.891 53.3359 662.297C52.9818 662.703 52.7995 663.289 52.7891 664.055V665.141H51.6094Z" fill="black"/>
</g>
<g id="Group 18" class="group">
<path id="C8-14" class="room" d="M105.103 803.611H1.57251V878.364H105.103V803.611Z" fill="white" stroke="#B3B3B3"/>
<path id="C8-14_2" class="room-name" d="M54.3906 852.312C55.5938 852.453 56.5234 852.898 57.1797 853.648C57.8307 854.393 58.1562 855.385 58.1562 856.625C58.1562 857.969 57.6745 859.047 56.7109 859.859C55.7474 860.667 54.4583 861.07 52.8438 861.07H51.75C50.6927 861.07 49.763 860.883 48.9609 860.508C48.1589 860.128 47.5443 859.591 47.1172 858.898C46.6849 858.206 46.4688 857.404 46.4688 856.492C46.4688 855.284 46.8073 854.315 47.4844 853.586C48.1562 852.857 49.0885 852.432 50.2812 852.312V853.82C49.375 853.951 48.7188 854.234 48.3125 854.672C47.9062 855.104 47.7031 855.711 47.7031 856.492C47.7031 857.451 48.0573 858.203 48.7656 858.75C49.474 859.292 50.4818 859.562 51.7891 859.562H52.8906C54.125 859.562 55.1068 859.305 55.8359 858.789C56.5651 858.273 56.9297 857.552 56.9297 856.625C56.9297 855.792 56.7422 855.154 56.3672 854.711C55.987 854.263 55.3281 853.966 54.3906 853.82V852.312ZM49.5938 843.734C50.1615 843.734 50.6667 843.885 51.1094 844.188C51.5521 844.484 51.8984 844.888 52.1484 845.398C52.4036 844.805 52.776 844.336 53.2656 843.992C53.7552 843.643 54.3099 843.469 54.9297 843.469C55.9141 843.469 56.6979 843.802 57.2812 844.469C57.8646 845.13 58.1562 846.003 58.1562 847.086C58.1562 848.18 57.8646 849.057 57.2812 849.719C56.6927 850.375 55.9089 850.703 54.9297 850.703C54.3151 850.703 53.7604 850.536 53.2656 850.203C52.7708 849.865 52.3958 849.398 52.1406 848.805C51.8906 849.31 51.5443 849.708 51.1016 850C50.6589 850.292 50.1562 850.438 49.5938 850.438C48.6354 850.438 47.875 850.13 47.3125 849.516C46.75 848.901 46.4688 848.091 46.4688 847.086C46.4688 846.086 46.75 845.279 47.3125 844.664C47.875 844.044 48.6354 843.734 49.5938 843.734ZM54.8984 844.914C54.263 844.914 53.7448 845.117 53.3438 845.523C52.9427 845.924 52.7422 846.451 52.7422 847.102C52.7422 847.753 52.9401 848.276 53.3359 848.672C53.7318 849.062 54.2526 849.258 54.8984 849.258C55.5443 849.258 56.0521 849.068 56.4219 848.688C56.7917 848.302 56.9766 847.768 56.9766 847.086C56.9766 846.409 56.7917 845.878 56.4219 845.492C56.0469 845.107 55.5391 844.914 54.8984 844.914ZM47.6562 847.086C47.6562 847.654 47.8333 848.115 48.1875 848.469C48.5365 848.818 49.013 848.992 49.6172 848.992C50.1953 848.992 50.6641 848.82 51.0234 848.477C51.3776 848.128 51.5547 847.664 51.5547 847.086C51.5547 846.508 51.3776 846.047 51.0234 845.703C50.6641 845.354 50.1953 845.18 49.6172 845.18C49.0391 845.18 48.5677 845.359 48.2031 845.719C47.8385 846.078 47.6562 846.534 47.6562 847.086ZM53.7578 838.492V842.305H52.5781V838.492H53.7578ZM58 832.477V833.93H48.3672L49.4375 836.844H48.125L46.5703 832.703V832.477H58ZM54.1797 822.141V820.562H55.3594V822.141H58V823.594H55.3594V828.773H54.5078L46.625 823.68V822.141H54.1797ZM54.1797 827.133V823.594H48.6016L48.9141 823.766L54.1797 827.133Z" fill="black"/>
</g>
<g id="Group 3" class="group">
<path id="C8-18" class="room" d="M316.149 995.474H155.062V1099H316.149V995.474Z" fill="white" stroke="#B3B3B3"/>
<path id="C8-18_2" class="room-name" d="M237.391 1058.31C238.594 1058.45 239.523 1058.9 240.18 1059.65C240.831 1060.39 241.156 1061.39 241.156 1062.62C241.156 1063.97 240.674 1065.05 239.711 1065.86C238.747 1066.67 237.458 1067.07 235.844 1067.07H234.75C233.693 1067.07 232.763 1066.88 231.961 1066.51C231.159 1066.13 230.544 1065.59 230.117 1064.9C229.685 1064.21 229.469 1063.4 229.469 1062.49C229.469 1061.28 229.807 1060.32 230.484 1059.59C231.156 1058.86 232.089 1058.43 233.281 1058.31V1059.82C232.375 1059.95 231.719 1060.23 231.312 1060.67C230.906 1061.1 230.703 1061.71 230.703 1062.49C230.703 1063.45 231.057 1064.2 231.766 1064.75C232.474 1065.29 233.482 1065.56 234.789 1065.56H235.891C237.125 1065.56 238.107 1065.3 238.836 1064.79C239.565 1064.27 239.93 1063.55 239.93 1062.62C239.93 1061.79 239.742 1061.15 239.367 1060.71C238.987 1060.26 238.328 1059.97 237.391 1059.82V1058.31ZM232.594 1049.73C233.161 1049.73 233.667 1049.89 234.109 1050.19C234.552 1050.48 234.898 1050.89 235.148 1051.4C235.404 1050.8 235.776 1050.34 236.266 1049.99C236.755 1049.64 237.31 1049.47 237.93 1049.47C238.914 1049.47 239.698 1049.8 240.281 1050.47C240.865 1051.13 241.156 1052 241.156 1053.09C241.156 1054.18 240.865 1055.06 240.281 1055.72C239.693 1056.38 238.909 1056.7 237.93 1056.7C237.315 1056.7 236.76 1056.54 236.266 1056.2C235.771 1055.86 235.396 1055.4 235.141 1054.8C234.891 1055.31 234.544 1055.71 234.102 1056C233.659 1056.29 233.156 1056.44 232.594 1056.44C231.635 1056.44 230.875 1056.13 230.312 1055.52C229.75 1054.9 229.469 1054.09 229.469 1053.09C229.469 1052.09 229.75 1051.28 230.312 1050.66C230.875 1050.04 231.635 1049.73 232.594 1049.73ZM237.898 1050.91C237.263 1050.91 236.745 1051.12 236.344 1051.52C235.943 1051.92 235.742 1052.45 235.742 1053.1C235.742 1053.75 235.94 1054.28 236.336 1054.67C236.732 1055.06 237.253 1055.26 237.898 1055.26C238.544 1055.26 239.052 1055.07 239.422 1054.69C239.792 1054.3 239.977 1053.77 239.977 1053.09C239.977 1052.41 239.792 1051.88 239.422 1051.49C239.047 1051.11 238.539 1050.91 237.898 1050.91ZM230.656 1053.09C230.656 1053.65 230.833 1054.11 231.188 1054.47C231.536 1054.82 232.013 1054.99 232.617 1054.99C233.195 1054.99 233.664 1054.82 234.023 1054.48C234.378 1054.13 234.555 1053.66 234.555 1053.09C234.555 1052.51 234.378 1052.05 234.023 1051.7C233.664 1051.35 233.195 1051.18 232.617 1051.18C232.039 1051.18 231.568 1051.36 231.203 1051.72C230.839 1052.08 230.656 1052.53 230.656 1053.09ZM236.758 1044.49V1048.3H235.578V1044.49H236.758ZM241 1038.48V1039.93H231.367L232.438 1042.84H231.125L229.57 1038.7V1038.48H241ZM232.594 1027.34C233.161 1027.34 233.667 1027.49 234.109 1027.8C234.552 1028.09 234.898 1028.5 235.148 1029.01C235.404 1028.41 235.776 1027.95 236.266 1027.6C236.755 1027.25 237.31 1027.08 237.93 1027.08C238.914 1027.08 239.698 1027.41 240.281 1028.08C240.865 1028.74 241.156 1029.61 241.156 1030.7C241.156 1031.79 240.865 1032.67 240.281 1033.33C239.693 1033.98 238.909 1034.31 237.93 1034.31C237.315 1034.31 236.76 1034.15 236.266 1033.81C235.771 1033.47 235.396 1033.01 235.141 1032.41C234.891 1032.92 234.544 1033.32 234.102 1033.61C233.659 1033.9 233.156 1034.05 232.594 1034.05C231.635 1034.05 230.875 1033.74 230.312 1033.12C229.75 1032.51 229.469 1031.7 229.469 1030.7C229.469 1029.7 229.75 1028.89 230.312 1028.27C230.875 1027.65 231.635 1027.34 232.594 1027.34ZM237.898 1028.52C237.263 1028.52 236.745 1028.73 236.344 1029.13C235.943 1029.53 235.742 1030.06 235.742 1030.71C235.742 1031.36 235.94 1031.89 236.336 1032.28C236.732 1032.67 237.253 1032.87 237.898 1032.87C238.544 1032.87 239.052 1032.68 239.422 1032.3C239.792 1031.91 239.977 1031.38 239.977 1030.7C239.977 1030.02 239.792 1029.49 239.422 1029.1C239.047 1028.72 238.539 1028.52 237.898 1028.52ZM230.656 1030.7C230.656 1031.26 230.833 1031.72 231.188 1032.08C231.536 1032.43 232.013 1032.6 232.617 1032.6C233.195 1032.6 233.664 1032.43 234.023 1032.09C234.378 1031.74 234.555 1031.27 234.555 1030.7C234.555 1030.12 234.378 1029.66 234.023 1029.31C233.664 1028.96 233.195 1028.79 232.617 1028.79C232.039 1028.79 231.568 1028.97 231.203 1029.33C230.839 1029.69 230.656 1030.14 230.656 1030.7Z" fill="black"/>
</g>
<g id="Group 17" class="group">
<path id="Hodnik" class="room" d="M155.844 0.999512H104.64V1099H155.844V0.999512Z" fill="white" stroke="#B3B3B3"/>
<path id="Hodnik_2" class="room-name" d="M135 565.938V567.445H129.742V573.18H135V574.68H123.625V573.18H128.516V567.445H123.625V565.938H135ZM130.695 563.883C129.867 563.883 129.122 563.721 128.461 563.398C127.799 563.07 127.289 562.617 126.93 562.039C126.57 561.456 126.391 560.792 126.391 560.047C126.391 558.896 126.789 557.966 127.586 557.258C128.383 556.544 129.443 556.188 130.766 556.188H130.867C131.69 556.188 132.43 556.346 133.086 556.664C133.737 556.977 134.245 557.427 134.609 558.016C134.974 558.599 135.156 559.271 135.156 560.031C135.156 561.177 134.758 562.107 133.961 562.82C133.164 563.529 132.109 563.883 130.797 563.883H130.695ZM130.867 562.43C131.805 562.43 132.557 562.214 133.125 561.781C133.693 561.344 133.977 560.76 133.977 560.031C133.977 559.297 133.69 558.714 133.117 558.281C132.539 557.849 131.732 557.633 130.695 557.633C129.768 557.633 129.018 557.854 128.445 558.297C127.867 558.734 127.578 559.318 127.578 560.047C127.578 560.76 127.862 561.336 128.43 561.773C128.997 562.211 129.81 562.43 130.867 562.43ZM130.703 554.727C129.406 554.727 128.365 554.419 127.578 553.805C126.786 553.19 126.391 552.385 126.391 551.391C126.391 550.401 126.729 549.617 127.406 549.039H123V547.594H135V548.922L134.094 548.992C134.802 549.57 135.156 550.375 135.156 551.406C135.156 552.385 134.755 553.185 133.953 553.805C133.151 554.419 132.104 554.727 130.812 554.727H130.703ZM130.867 553.281C131.826 553.281 132.576 553.083 133.117 552.688C133.659 552.292 133.93 551.745 133.93 551.047C133.93 550.13 133.518 549.461 132.695 549.039H128.812C128.016 549.471 127.617 550.135 127.617 551.031C127.617 551.74 127.891 552.292 128.438 552.688C128.984 553.083 129.794 553.281 130.867 553.281ZM126.547 543.977L127.609 543.93C126.797 543.284 126.391 542.44 126.391 541.398C126.391 539.612 127.398 538.711 129.414 538.695H135V540.141H129.406C128.797 540.146 128.346 540.286 128.055 540.562C127.763 540.833 127.617 541.258 127.617 541.836C127.617 542.305 127.742 542.716 127.992 543.07C128.242 543.424 128.57 543.701 128.977 543.898H135V545.344H126.547V543.977ZM135 534.945V536.391H126.547V534.945H135ZM124.305 536.508C124.07 536.508 123.872 536.438 123.711 536.297C123.549 536.151 123.469 535.938 123.469 535.656C123.469 535.375 123.549 535.161 123.711 535.016C123.872 534.87 124.07 534.797 124.305 534.797C124.539 534.797 124.734 534.87 124.891 535.016C125.047 535.161 125.125 535.375 125.125 535.656C125.125 535.938 125.047 536.151 124.891 536.297C124.734 536.438 124.539 536.508 124.305 536.508ZM131.086 530.266L132.031 531.172H135V532.617H123V531.172H130.258L129.328 530.398L126.547 527.766V526.008L130.078 529.297L135 525.625V527.32L131.086 530.266Z" fill="black"/>
</g>
<g id="Group 2" class="group">
<path id="C8-05" class="room" d="M105.103 0.996338H1.57251V75.7478H105.103V0.996338Z" fill="white" stroke="#B3B3B3"/>
<path id="C8-05_2" class="room-name" d="M54.3906 49.3125C55.5938 49.4531 56.5234 49.8984 57.1797 50.6484C57.8307 51.3932 58.1562 52.3854 58.1562 53.625C58.1562 54.9688 57.6745 56.0469 56.7109 56.8594C55.7474 57.6667 54.4583 58.0703 52.8438 58.0703H51.75C50.6927 58.0703 49.763 57.8828 48.9609 57.5078C48.1589 57.1276 47.5443 56.5911 47.1172 55.8984C46.6849 55.2057 46.4688 54.4036 46.4688 53.4922C46.4688 52.2839 46.8073 51.3151 47.4844 50.5859C48.1562 49.8568 49.0885 49.4323 50.2812 49.3125V50.8203C49.375 50.9505 48.7188 51.2344 48.3125 51.6719C47.9062 52.1042 47.7031 52.7109 47.7031 53.4922C47.7031 54.4505 48.0573 55.2031 48.7656 55.75C49.474 56.2917 50.4818 56.5625 51.7891 56.5625H52.8906C54.125 56.5625 55.1068 56.3047 55.8359 55.7891C56.5651 55.2734 56.9297 54.5521 56.9297 53.625C56.9297 52.7917 56.7422 52.1536 56.3672 51.7109C55.987 51.263 55.3281 50.9661 54.3906 50.8203V49.3125ZM49.5938 40.7344C50.1615 40.7344 50.6667 40.8854 51.1094 41.1875C51.5521 41.4844 51.8984 41.888 52.1484 42.3984C52.4036 41.8047 52.776 41.3359 53.2656 40.9922C53.7552 40.6432 54.3099 40.4688 54.9297 40.4688C55.9141 40.4688 56.6979 40.8021 57.2812 41.4688C57.8646 42.1302 58.1562 43.0026 58.1562 44.0859C58.1562 45.1797 57.8646 46.0573 57.2812 46.7188C56.6927 47.375 55.9089 47.7031 54.9297 47.7031C54.3151 47.7031 53.7604 47.5365 53.2656 47.2031C52.7708 46.8646 52.3958 46.3984 52.1406 45.8047C51.8906 46.3099 51.5443 46.7083 51.1016 47C50.6589 47.2917 50.1562 47.4375 49.5938 47.4375C48.6354 47.4375 47.875 47.1302 47.3125 46.5156C46.75 45.901 46.4688 45.0911 46.4688 44.0859C46.4688 43.0859 46.75 42.2786 47.3125 41.6641C47.875 41.0443 48.6354 40.7344 49.5938 40.7344ZM54.8984 41.9141C54.263 41.9141 53.7448 42.1172 53.3438 42.5234C52.9427 42.9245 52.7422 43.4505 52.7422 44.1016C52.7422 44.7526 52.9401 45.276 53.3359 45.6719C53.7318 46.0625 54.2526 46.2578 54.8984 46.2578C55.5443 46.2578 56.0521 46.0677 56.4219 45.6875C56.7917 45.3021 56.9766 44.7682 56.9766 44.0859C56.9766 43.4089 56.7917 42.8776 56.4219 42.4922C56.0469 42.1068 55.5391 41.9141 54.8984 41.9141ZM47.6562 44.0859C47.6562 44.6536 47.8333 45.1146 48.1875 45.4688C48.5365 45.8177 49.013 45.9922 49.6172 45.9922C50.1953 45.9922 50.6641 45.8203 51.0234 45.4766C51.3776 45.1276 51.5547 44.6641 51.5547 44.0859C51.5547 43.5078 51.3776 43.0469 51.0234 42.7031C50.6641 42.3542 50.1953 42.1797 49.6172 42.1797C49.0391 42.1797 48.5677 42.3594 48.2031 42.7188C47.8385 43.0781 47.6562 43.5339 47.6562 44.0859ZM53.7578 35.4922V39.3047H52.5781V35.4922H53.7578ZM53.1484 27.0938C54.8411 27.0938 56.099 27.3828 56.9219 27.9609C57.7448 28.5391 58.1562 29.4427 58.1562 30.6719C58.1562 31.8854 57.7552 32.7839 56.9531 33.3672C56.1458 33.9505 54.9427 34.2526 53.3438 34.2734H51.4141C49.7422 34.2734 48.5 33.9844 47.6875 33.4062C46.875 32.8281 46.4688 31.9219 46.4688 30.6875C46.4688 29.4635 46.862 28.5625 47.6484 27.9844C48.4297 27.4062 49.638 27.1094 51.2734 27.0938H53.1484ZM51.1719 28.5391C49.9479 28.5391 49.0573 28.7109 48.5 29.0547C47.9375 29.3984 47.6562 29.9427 47.6562 30.6875C47.6562 31.4271 47.9349 31.9661 48.4922 32.3047C49.0495 32.6432 49.9062 32.8177 51.0625 32.8281H53.375C54.6042 32.8281 55.513 32.651 56.1016 32.2969C56.6849 31.9375 56.9766 31.3958 56.9766 30.6719C56.9766 29.9583 56.7005 29.4297 56.1484 29.0859C55.5964 28.737 54.7266 28.5547 53.5391 28.5391H51.1719ZM52.2969 24.5781L46.625 24V18.1719H47.9609V22.7734L51.0625 23.1172C50.7344 22.5599 50.5703 21.9271 50.5703 21.2188C50.5703 20.1823 50.9141 19.3594 51.6016 18.75C52.2839 18.1406 53.2083 17.8359 54.375 17.8359C55.5469 17.8359 56.4714 18.1536 57.1484 18.7891C57.8203 19.4193 58.1562 20.3021 58.1562 21.4375C58.1562 22.4427 57.8776 23.263 57.3203 23.8984C56.763 24.5339 55.9922 24.8958 55.0078 24.9844V23.6172C55.6589 23.5286 56.151 23.2969 56.4844 22.9219C56.8125 22.5469 56.9766 22.0521 56.9766 21.4375C56.9766 20.7656 56.7474 20.2396 56.2891 19.8594C55.8307 19.474 55.1979 19.2812 54.3906 19.2812C53.6302 19.2812 53.0208 19.4896 52.5625 19.9062C52.099 20.3177 51.8672 20.8672 51.8672 21.5547C51.8672 22.1849 52.0052 22.6797 52.2812 23.0391L52.5938 23.4219L52.2969 24.5781Z" fill="black"/>
</g>
<g id="Group 16" class="group">
<path id="C8-13a" class="room" d="M105.103 733.264H1.57251V769.643H105.103V733.264Z" fill="white" stroke="#B3B3B3"/>
<path id="C8-13a-WC" class="room" d="M105.103 768.437H1.57251V804.817H105.103V768.437Z" fill="white" stroke="#B3B3B3"/>
<path id="WC" class="room-name" d="M61.2266 785.586L61.0078 784.086L60.6875 785.438L58.4375 793.375H57.1719L54.9766 785.438L54.6641 784.062L54.4219 785.594L52.6562 793.375H51.1484L53.9062 782H55.2734L57.6172 790.289L57.7969 791.156L57.9766 790.289L60.4062 782H61.7734L64.5234 793.375H63.0234L61.2266 785.586ZM41.1094 785.609C41.25 784.406 41.6953 783.477 42.4453 782.82C43.1901 782.169 44.1823 781.844 45.4219 781.844C46.7656 781.844 47.8438 782.326 48.6562 783.289C49.4635 784.253 49.8672 785.542 49.8672 787.156V788.25C49.8672 789.307 49.6797 790.237 49.3047 791.039C48.9245 791.841 48.388 792.456 47.6953 792.883C47.0026 793.315 46.2005 793.531 45.2891 793.531C44.0807 793.531 43.112 793.193 42.3828 792.516C41.6536 791.844 41.2292 790.911 41.1094 789.719H42.6172C42.7474 790.625 43.0312 791.281 43.4688 791.688C43.901 792.094 44.5078 792.297 45.2891 792.297C46.2474 792.297 47 791.943 47.5469 791.234C48.0885 790.526 48.3594 789.518 48.3594 788.211V787.109C48.3594 785.875 48.1016 784.893 47.5859 784.164C47.0703 783.435 46.349 783.07 45.4219 783.07C44.5885 783.07 43.9505 783.258 43.5078 783.633C43.0599 784.013 42.763 784.672 42.6172 785.609H41.1094Z" fill="black"/>
<path id="C8-13a_2" class="room-name" d="M68.3125 749.609C68.4531 748.406 68.8984 747.477 69.6484 746.82C70.3932 746.169 71.3854 745.844 72.625 745.844C73.9688 745.844 75.0469 746.326 75.8594 747.289C76.6667 748.253 77.0703 749.542 77.0703 751.156V752.25C77.0703 753.307 76.8828 754.237 76.5078 755.039C76.1276 755.841 75.5911 756.456 74.8984 756.883C74.2057 757.315 73.4036 757.531 72.4922 757.531C71.2839 757.531 70.3151 757.193 69.5859 756.516C68.8568 755.844 68.4323 754.911 68.3125 753.719H69.8203C69.9505 754.625 70.2344 755.281 70.6719 755.688C71.1042 756.094 71.7109 756.297 72.4922 756.297C73.4505 756.297 74.2031 755.943 74.75 755.234C75.2917 754.526 75.5625 753.518 75.5625 752.211V751.109C75.5625 749.875 75.3047 748.893 74.7891 748.164C74.2734 747.435 73.5521 747.07 72.625 747.07C71.7917 747.07 71.1536 747.258 70.7109 747.633C70.263 748.013 69.9661 748.672 69.8203 749.609H68.3125ZM59.7344 754.406C59.7344 753.839 59.8854 753.333 60.1875 752.891C60.4844 752.448 60.888 752.102 61.3984 751.852C60.8047 751.596 60.3359 751.224 59.9922 750.734C59.6432 750.245 59.4688 749.69 59.4688 749.07C59.4688 748.086 59.8021 747.302 60.4688 746.719C61.1302 746.135 62.0026 745.844 63.0859 745.844C64.1797 745.844 65.0573 746.135 65.7188 746.719C66.375 747.307 66.7031 748.091 66.7031 749.07C66.7031 749.685 66.5365 750.24 66.2031 750.734C65.8646 751.229 65.3984 751.604 64.8047 751.859C65.3099 752.109 65.7083 752.456 66 752.898C66.2917 753.341 66.4375 753.844 66.4375 754.406C66.4375 755.365 66.1302 756.125 65.5156 756.688C64.901 757.25 64.0911 757.531 63.0859 757.531C62.0859 757.531 61.2786 757.25 60.6641 756.688C60.0443 756.125 59.7344 755.365 59.7344 754.406ZM60.9141 749.102C60.9141 749.737 61.1172 750.255 61.5234 750.656C61.9245 751.057 62.4505 751.258 63.1016 751.258C63.7526 751.258 64.276 751.06 64.6719 750.664C65.0625 750.268 65.2578 749.747 65.2578 749.102C65.2578 748.456 65.0677 747.948 64.6875 747.578C64.3021 747.208 63.7682 747.023 63.0859 747.023C62.4089 747.023 61.8776 747.208 61.4922 747.578C61.1068 747.953 60.9141 748.461 60.9141 749.102ZM63.0859 756.344C63.6536 756.344 64.1146 756.167 64.4688 755.812C64.8177 755.464 64.9922 754.987 64.9922 754.383C64.9922 753.805 64.8203 753.336 64.4766 752.977C64.1276 752.622 63.6641 752.445 63.0859 752.445C62.5078 752.445 62.0469 752.622 61.7031 752.977C61.3542 753.336 61.1797 753.805 61.1797 754.383C61.1797 754.961 61.3594 755.432 61.7188 755.797C62.0781 756.161 62.5339 756.344 63.0859 756.344ZM54.4922 750.242H58.3047V751.422H54.4922V750.242ZM48.4766 746H49.9297V755.633L52.8438 754.562V755.875L48.7031 757.43H48.4766V746ZM42.1406 752.391H41.0547C40.3724 752.401 39.8359 752.581 39.4453 752.93C39.0547 753.279 38.8594 753.75 38.8594 754.344C38.8594 755.677 39.5234 756.344 40.8516 756.344C41.4766 756.344 41.9766 756.164 42.3516 755.805C42.7214 755.451 42.9062 754.979 42.9062 754.391H44.3516C44.3516 755.292 44.0234 756.039 43.3672 756.633C42.7057 757.232 41.8672 757.531 40.8516 757.531C39.7786 757.531 38.9375 757.247 38.3281 756.68C37.7188 756.112 37.4141 755.323 37.4141 754.312C37.4141 753.818 37.5755 753.339 37.8984 752.875C38.2161 752.411 38.651 752.065 39.2031 751.836C38.5781 751.638 38.0964 751.31 37.7578 750.852C37.4141 750.393 37.2422 749.833 37.2422 749.172C37.2422 748.151 37.5755 747.341 38.2422 746.742C38.9089 746.143 39.776 745.844 40.8438 745.844C41.9115 745.844 42.7812 746.133 43.4531 746.711C44.1198 747.289 44.4531 748.052 44.4531 749H43C43 748.401 42.8047 747.922 42.4141 747.562C42.0234 747.203 41.5 747.023 40.8438 747.023C40.1458 747.023 39.612 747.206 39.2422 747.57C38.8724 747.935 38.6875 748.458 38.6875 749.141C38.6875 749.802 38.8906 750.31 39.2969 750.664C39.7031 751.018 40.2891 751.201 41.0547 751.211H42.1406V752.391ZM29.8906 746C29.974 746.167 30.0417 746.464 30.0938 746.891C30.7656 746.193 31.5677 745.844 32.5 745.844C33.3333 745.844 34.0182 746.078 34.5547 746.547C35.0859 747.021 35.3516 747.62 35.3516 748.344C35.3516 749.224 35.0182 749.906 34.3516 750.391C33.6797 750.88 32.737 751.125 31.5234 751.125H30.1172V751.789C30.1172 752.294 30.2682 752.695 30.5703 752.992C30.8724 753.294 31.3177 753.445 31.9062 753.445C32.4219 753.445 32.8542 753.315 33.2031 753.055C33.5521 752.794 33.7266 752.479 33.7266 752.109H35.1797C35.1797 752.531 35.0312 752.938 34.7344 753.328C34.4323 753.724 34.026 754.036 33.5156 754.266C33 754.495 32.4349 754.609 31.8203 754.609C30.8464 754.609 30.0833 754.365 29.5312 753.875C28.9792 753.391 28.6927 752.721 28.6719 751.867V747.977C28.6719 747.201 28.5729 746.583 28.375 746.125V746H29.8906ZM32.2891 747.102C31.8359 747.102 31.4062 747.219 31 747.453C30.5938 747.688 30.2995 747.992 30.1172 748.367V750.102H31.25C33.0208 750.102 33.9062 749.583 33.9062 748.547C33.9062 748.094 33.7552 747.74 33.4531 747.484C33.151 747.229 32.763 747.102 32.2891 747.102Z" fill="black"/>
</g>
</svg>
