<svg width="25" height="25" viewBox="0 0 25 25" fill="none" xmlns="http://www.w3.org/2000/svg">
<path d="M24.5741 2.19223C24.8093 2.19223 24.9999 2.00156 24.9999 1.7664V0.425829C24.9999 0.190673 24.8093 0 24.5741 0H5.30425C5.06909 0 4.87842 0.190673 4.87842 0.425829V19.6956C4.87842 19.9307 5.06909 20.1214 5.30425 20.1214H24.574C24.8092 20.1214 24.9998 19.9307 24.9998 19.6956V3.18579C24.9998 2.95063 24.8092 2.75996 24.574 2.75996C24.3388 2.75996 24.1482 2.95063 24.1482 3.18579V10.4815H22.457C22.2218 10.4815 22.0312 10.6721 22.0312 10.9073C22.0312 11.1425 22.2218 11.3331 22.457 11.3331H24.1482V19.2698H11.982V17.2094C11.982 16.9742 11.7913 16.7836 11.5561 16.7836C11.321 16.7836 11.1303 16.9742 11.1303 17.2094V19.2698H5.73008V0.851659H11.1304V14.1435C11.1304 14.3787 11.321 14.5694 11.5562 14.5694C11.7913 14.5694 11.982 14.3787 11.982 14.1435V11.3331H19.5615C19.7967 11.3331 19.9874 11.1425 19.9874 10.9073C19.9874 10.6721 19.7968 10.4815 19.5615 10.4815H11.982V0.851659H24.1483V1.7664C24.1483 2.00156 24.3388 2.19223 24.5741 2.19223Z" fill="white" fill-opacity="0.5"/>
<path d="M3.59783 2.45756L2.19271 0.200781C2.11497 0.0759276 1.97825 0 1.83123 0C1.68416 0 1.54749 0.0759276 1.46976 0.200781L0.0645864 2.45756C-0.0171517 2.58886 -0.0213021 2.75415 0.0537954 2.88935C0.128893 3.02455 0.271422 3.10844 0.42606 3.10844H1.4054V4.8891C1.4054 5.12426 1.59608 5.31493 1.83123 5.31493C2.06639 5.31493 2.25706 5.12426 2.25706 4.8891V3.10844H3.23641C3.39104 3.10844 3.53357 3.0246 3.60867 2.88935C3.68377 2.7541 3.67962 2.58881 3.59783 2.45756ZM1.19281 2.25678L1.83118 1.23149L2.46956 2.25678H1.19281Z" fill="white" fill-opacity="0.5"/>
<path d="M3.60862 17.2321C3.53353 17.0969 3.391 17.013 3.23636 17.013H2.25701V6.02458C2.25701 5.78943 2.06634 5.59875 1.83118 5.59875C1.59603 5.59875 1.40536 5.78943 1.40536 6.02458V17.013H0.42606C0.271422 17.013 0.128893 17.0968 0.0537954 17.2321C-0.0213021 17.3673 -0.0171517 17.5326 0.0645864 17.6639L1.46971 19.9207C1.54744 20.0455 1.68411 20.1214 1.83118 20.1214C1.9783 20.1214 2.11497 20.0455 2.19266 19.9207L3.59778 17.6639C3.67962 17.5325 3.68377 17.3673 3.60862 17.2321ZM1.83123 18.89L1.19281 17.8647H2.46956L1.83123 18.89Z" fill="white" fill-opacity="0.5"/>
<path d="M24.7991 22.8076L22.5423 21.4025C22.4111 21.3207 22.2458 21.3166 22.1106 21.3917C21.9754 21.4668 21.8915 21.6093 21.8915 21.7639V22.7433H7.98686V21.7639C7.98686 21.6093 7.90302 21.4668 7.76782 21.3917C7.63261 21.3166 7.46738 21.3207 7.33598 21.4025L5.0792 22.8076C4.95435 22.8853 4.87842 23.022 4.87842 23.1691C4.87842 23.3161 4.95435 23.4528 5.0792 23.5305L7.33598 24.9357C7.40473 24.9785 7.48286 25 7.56103 25C7.63217 25 7.70336 24.9822 7.76777 24.9464C7.90302 24.8713 7.98686 24.7288 7.98686 24.5742V23.5948H21.8915V24.5742C21.8915 24.7288 21.9754 24.8713 22.1105 24.9464C22.175 24.9822 22.2462 25 22.3173 25C22.3955 25 22.4736 24.9784 22.5423 24.9357L24.7991 23.5305C24.924 23.4528 24.9999 23.3161 24.9999 23.1691C24.9999 23.0219 24.924 22.8853 24.7991 22.8076ZM7.1352 23.8074L6.10991 23.1691L7.1352 22.5307V23.8074ZM22.7431 23.8074V22.5307L23.7685 23.1691L22.7431 23.8074Z" fill="white" fill-opacity="0.5"/>
</svg>
