<svg width="17" height="15" viewBox="0 0 17 15" fill="none" xmlns="http://www.w3.org/2000/svg">
<g clip-path="url(#clip0)">
<path d="M8.44991 0C3.97743 0 0.338623 3.36457 0.338623 7.5C0.338623 11.6354 3.97743 15 8.44991 15C12.9224 15 16.5612 11.6354 16.5612 7.5C16.5612 3.36457 12.9224 0 8.44991 0ZM8.44991 14.0625C4.53635 14.0625 1.35254 11.1186 1.35254 7.5C1.35254 3.88137 4.53635 0.937504 8.44991 0.937504C12.3635 0.937504 15.5473 3.88137 15.5473 7.5C15.5473 11.1186 12.3635 14.0625 8.44991 14.0625Z" fill="white" fill-opacity="0.5"/>
<path d="M8.95679 2.8125H7.94287V7.69408L11.1331 10.6439L11.85 9.98106L8.95679 7.3059V2.8125Z" fill="white" fill-opacity="0.5"/>
</g>
<defs>
<clipPath id="clip0">
<rect width="16.2226" height="15" fill="white" transform="translate(0.338623)"/>
</clipPath>
</defs>
</svg>
